<svg width="246" height="70" viewBox="0 0 246 70" fill="none" xmlns="http://www.w3.org/2000/svg">
<path d="M3.008 23.6797V1.27969H12.736C14.08 1.27969 15.3067 1.59969 16.416 2.23969C17.5253 2.85835 18.4 3.71169 19.04 4.79969C19.7013 5.86635 20.032 7.07169 20.032 8.41569C20.032 9.69569 19.7013 10.8797 19.04 11.9677C18.4 13.0344 17.5253 13.8877 16.416 14.5277C15.328 15.1464 14.1013 15.4557 12.736 15.4557H7.072V23.6797H3.008ZM16 23.6797L10.304 13.5677L14.592 12.7677L20.928 23.7117L16 23.6797ZM7.072 11.8397H12.768C13.3867 11.8397 13.92 11.701 14.368 11.4237C14.8373 11.125 15.2 10.7197 15.456 10.2077C15.712 9.69569 15.84 9.13035 15.84 8.51169C15.84 7.80769 15.68 7.19969 15.36 6.68769C15.04 6.17569 14.592 5.77035 14.016 5.47169C13.44 5.17302 12.7787 5.02369 12.032 5.02369H7.072V11.8397ZM31.7035 23.9997C30.0182 23.9997 28.5142 23.6264 27.1915 22.8797C25.8688 22.1117 24.8235 21.0664 24.0555 19.7437C23.2875 18.421 22.9035 16.917 22.9035 15.2317C22.9035 13.5464 23.2875 12.0424 24.0555 10.7197C24.8235 9.39702 25.8688 8.36235 27.1915 7.61569C28.5142 6.84769 30.0182 6.46369 31.7035 6.46369C33.3675 6.46369 34.8608 6.84769 36.1835 7.61569C37.5062 8.36235 38.5408 9.39702 39.2875 10.7197C40.0555 12.0424 40.4395 13.5464 40.4395 15.2317C40.4395 16.917 40.0555 18.421 39.2875 19.7437C38.5408 21.0664 37.5062 22.1117 36.1835 22.8797C34.8608 23.6264 33.3675 23.9997 31.7035 23.9997ZM31.7035 20.5117C32.6208 20.5117 33.4315 20.277 34.1355 19.8077C34.8608 19.3384 35.4262 18.709 35.8315 17.9197C36.2582 17.1304 36.4608 16.2344 36.4395 15.2317C36.4608 14.2077 36.2582 13.301 35.8315 12.5117C35.4262 11.7224 34.8608 11.1037 34.1355 10.6557C33.4315 10.1864 32.6208 9.95169 31.7035 9.95169C30.7862 9.95169 29.9542 10.1864 29.2075 10.6557C28.4822 11.1037 27.9168 11.733 27.5115 12.5437C27.1062 13.333 26.9035 14.229 26.9035 15.2317C26.9035 16.2344 27.1062 17.1304 27.5115 17.9197C27.9168 18.709 28.4822 19.3384 29.2075 19.8077C29.9542 20.277 30.7862 20.5117 31.7035 20.5117ZM45.7843 23.6797V2.52769H49.7203V23.6797H45.7843ZM42.4563 10.4637V6.81569H53.4003V10.4637H42.4563ZM62.6095 23.9997C61.2228 23.9997 59.9642 23.6157 58.8335 22.8477C57.7028 22.0797 56.7962 21.0344 56.1135 19.7117C55.4308 18.389 55.0895 16.885 55.0895 15.1997C55.0895 13.5144 55.4308 12.0104 56.1135 10.6877C56.7962 9.36502 57.7242 8.33035 58.8975 7.58369C60.0708 6.83702 61.3935 6.46369 62.8655 6.46369C63.7188 6.46369 64.4975 6.59169 65.2015 6.84769C65.9055 7.08235 66.5242 7.42369 67.0575 7.87169C67.5908 8.31969 68.0282 8.83169 68.3695 9.40769C68.7322 9.98369 68.9775 10.6024 69.1055 11.2637L68.2415 11.0397V6.81569H72.2095V23.6797H68.2095V19.6477L69.1375 19.4877C68.9882 20.0637 68.7108 20.629 68.3055 21.1837C67.9215 21.717 67.4308 22.197 66.8335 22.6237C66.2575 23.029 65.6068 23.3597 64.8815 23.6157C64.1775 23.8717 63.4202 23.9997 62.6095 23.9997ZM63.6975 20.5117C64.6148 20.5117 65.4255 20.2877 66.1295 19.8397C66.8335 19.3917 67.3775 18.773 67.7615 17.9837C68.1668 17.173 68.3695 16.245 68.3695 15.1997C68.3695 14.1757 68.1668 13.269 67.7615 12.4797C67.3775 11.6904 66.8335 11.0717 66.1295 10.6237C65.4255 10.1757 64.6148 9.95169 63.6975 9.95169C62.7802 9.95169 61.9695 10.1757 61.2655 10.6237C60.5828 11.0717 60.0495 11.6904 59.6655 12.4797C59.2815 13.269 59.0895 14.1757 59.0895 15.1997C59.0895 16.245 59.2815 17.173 59.6655 17.9837C60.0495 18.773 60.5828 19.3917 61.2655 19.8397C61.9695 20.2877 62.7802 20.5117 63.6975 20.5117ZM76.7728 23.6797V6.81569H80.6448L80.7088 12.1917L80.1648 10.9757C80.3994 10.1224 80.8048 9.35435 81.3808 8.67169C81.9568 7.98902 82.6181 7.45569 83.3648 7.07169C84.1328 6.66635 84.9328 6.46369 85.7648 6.46369C86.1274 6.46369 86.4688 6.49569 86.7888 6.55969C87.1301 6.62369 87.4074 6.69835 87.6208 6.78369L86.5648 11.1037C86.3301 10.9757 86.0421 10.869 85.7008 10.7837C85.3594 10.6984 85.0181 10.6557 84.6768 10.6557C84.1434 10.6557 83.6314 10.7624 83.1408 10.9757C82.6714 11.1677 82.2554 11.445 81.8928 11.8077C81.5301 12.1704 81.2421 12.597 81.0288 13.0877C80.8368 13.557 80.7408 14.0904 80.7408 14.6877V23.6797H76.7728ZM92.8015 31.0397L96.3855 22.7517L96.4175 25.3757L88.0975 6.81569H92.6415L97.2815 17.8237C97.4308 18.101 97.5802 18.4744 97.7295 18.9437C97.8788 19.3917 98.0068 19.8397 98.1135 20.2877L97.3135 20.5437C97.4628 20.1384 97.6228 19.7117 97.7935 19.2637C97.9642 18.7944 98.1242 18.3144 98.2735 17.8237L102.242 6.81569H106.818L99.7775 23.6797L96.8975 31.0397H92.8015ZM125.879 23.6797L116.919 1.27969H121.463L126.455 14.1117C126.711 14.773 126.935 15.3704 127.127 15.9037C127.319 16.4157 127.49 16.885 127.639 17.3117C127.788 17.7384 127.916 18.1544 128.023 18.5597C128.151 18.965 128.29 19.3917 128.439 19.8397H127.543C127.692 19.2637 127.852 18.6984 128.023 18.1437C128.194 17.5677 128.386 16.9597 128.599 16.3197C128.834 15.6797 129.111 14.9437 129.431 14.1117L134.103 1.27969H138.679L129.655 23.6797H125.879ZM145.985 23.9997C144.598 23.9997 143.339 23.6157 142.209 22.8477C141.078 22.0797 140.171 21.0344 139.489 19.7117C138.806 18.389 138.465 16.885 138.465 15.1997C138.465 13.5144 138.806 12.0104 139.489 10.6877C140.171 9.36502 141.099 8.33035 142.273 7.58369C143.446 6.83702 144.769 6.46369 146.241 6.46369C147.094 6.46369 147.873 6.59169 148.577 6.84769C149.281 7.08235 149.899 7.42369 150.433 7.87169C150.966 8.31969 151.403 8.83169 151.745 9.40769C152.107 9.98369 152.353 10.6024 152.481 11.2637L151.617 11.0397V6.81569H155.585V23.6797H151.585V19.6477L152.513 19.4877C152.363 20.0637 152.086 20.629 151.681 21.1837C151.297 21.717 150.806 22.197 150.209 22.6237C149.633 23.029 148.982 23.3597 148.257 23.6157C147.553 23.8717 146.795 23.9997 145.985 23.9997ZM147.073 20.5117C147.99 20.5117 148.801 20.2877 149.505 19.8397C150.209 19.3917 150.753 18.773 151.137 17.9837C151.542 17.173 151.745 16.245 151.745 15.1997C151.745 14.1757 151.542 13.269 151.137 12.4797C150.753 11.6904 150.209 11.0717 149.505 10.6237C148.801 10.1757 147.99 9.95169 147.073 9.95169C146.155 9.95169 145.345 10.1757 144.641 10.6237C143.958 11.0717 143.425 11.6904 143.041 12.4797C142.657 13.269 142.465 14.1757 142.465 15.1997C142.465 16.245 142.657 17.173 143.041 17.9837C143.425 18.773 143.958 19.3917 144.641 19.8397C145.345 20.2877 146.155 20.5117 147.073 20.5117ZM160.18 23.6797V-0.000312805H164.148V23.6797H160.18ZM173.368 23.6797L166.264 6.81569H170.552L175.352 19.4237L174.52 19.6477L179.576 6.81569H183.768L176.312 23.6797H173.368ZM194.083 23.9997C192.312 23.9997 190.744 23.6264 189.379 22.8797C188.035 22.133 186.979 21.1197 186.211 19.8397C185.464 18.5384 185.091 17.0557 185.091 15.3917C185.091 14.069 185.304 12.8637 185.731 11.7757C186.158 10.6877 186.744 9.74902 187.491 8.95969C188.259 8.14902 189.166 7.53035 190.211 7.10369C191.278 6.65569 192.44 6.43169 193.699 6.43169C194.808 6.43169 195.843 6.64502 196.803 7.07169C197.763 7.49835 198.595 8.08502 199.299 8.83169C200.003 9.55702 200.536 10.4317 200.899 11.4557C201.283 12.4584 201.464 13.557 201.443 14.7517L201.411 16.1277H187.747L187.011 13.4397H198.115L197.603 13.9837V13.2797C197.539 12.6184 197.326 12.0424 196.963 11.5517C196.6 11.0397 196.131 10.645 195.555 10.3677C195 10.069 194.382 9.91969 193.699 9.91969C192.654 9.91969 191.768 10.1224 191.043 10.5277C190.339 10.933 189.806 11.5197 189.443 12.2877C189.08 13.0344 188.899 13.973 188.899 15.1037C188.899 16.1917 189.123 17.141 189.571 17.9517C190.04 18.7624 190.691 19.3917 191.523 19.8397C192.376 20.2664 193.368 20.4797 194.499 20.4797C195.288 20.4797 196.014 20.3517 196.675 20.0957C197.336 19.8397 198.051 19.381 198.819 18.7197L200.771 21.4397C200.195 21.973 199.534 22.4317 198.787 22.8157C198.062 23.1784 197.294 23.4664 196.483 23.6797C195.672 23.893 194.872 23.9997 194.083 23.9997Z" fill="#3F3F3F"/>
<path d="M3.384 68.6797V43.4797H13.5C15.324 43.4797 16.968 43.7797 18.432 44.3797C19.92 44.9797 21.192 45.8437 22.248 46.9717C23.328 48.0997 24.144 49.4317 24.696 50.9677C25.272 52.5037 25.56 54.2077 25.56 56.0797C25.56 57.9517 25.272 59.6677 24.696 61.2277C24.144 62.7637 23.34 64.0957 22.284 65.2237C21.228 66.3277 19.956 67.1797 18.468 67.7797C16.98 68.3797 15.324 68.6797 13.5 68.6797H3.384ZM8.064 65.0437L7.704 64.3597H13.32C14.496 64.3597 15.54 64.1677 16.452 63.7837C17.388 63.3997 18.18 62.8477 18.828 62.1277C19.476 61.4077 19.968 60.5437 20.304 59.5357C20.64 58.5037 20.808 57.3517 20.808 56.0797C20.808 54.8077 20.64 53.6677 20.304 52.6597C19.968 51.6277 19.464 50.7517 18.792 50.0317C18.144 49.3117 17.364 48.7597 16.452 48.3757C15.54 47.9917 14.496 47.7997 13.32 47.7997H7.596L8.064 47.1877V65.0437ZM41.3221 69.0397C39.4981 69.0397 37.8301 68.7277 36.3181 68.1037C34.8061 67.4797 33.4981 66.5917 32.3941 65.4397C31.2901 64.2637 30.4261 62.8837 29.8021 61.2997C29.2021 59.6917 28.9021 57.9397 28.9021 56.0437C28.9021 54.2197 29.2261 52.5277 29.8741 50.9677C30.5221 49.4077 31.4221 48.0397 32.5741 46.8637C33.7261 45.6877 35.0701 44.7757 36.6061 44.1277C38.1421 43.4797 39.8101 43.1557 41.6101 43.1557C42.8341 43.1557 44.0221 43.3357 45.1741 43.6957C46.3261 44.0557 47.3821 44.5597 48.3421 45.2077C49.3021 45.8317 50.1061 46.5637 50.7541 47.4037L47.7661 50.6797C47.1421 50.0317 46.4941 49.4917 45.8221 49.0597C45.1741 48.6037 44.4901 48.2677 43.7701 48.0517C43.0741 47.8117 42.3541 47.6917 41.6101 47.6917C40.5061 47.6917 39.4621 47.8957 38.4781 48.3037C37.5181 48.7117 36.6781 49.2877 35.9581 50.0317C35.2621 50.7757 34.7101 51.6637 34.3021 52.6957C33.8941 53.7037 33.6901 54.8317 33.6901 56.0797C33.6901 57.3517 33.8821 58.5037 34.2661 59.5357C34.6741 60.5677 35.2381 61.4557 35.9581 62.1997C36.7021 62.9437 37.5781 63.5197 38.5861 63.9277C39.6181 64.3117 40.7461 64.5037 41.9701 64.5037C42.7621 64.5037 43.5301 64.3957 44.2741 64.1797C45.0181 63.9637 45.7021 63.6637 46.3261 63.2797C46.9741 62.8717 47.5621 62.4037 48.0901 61.8757L50.3941 65.5837C49.8181 66.2317 49.0501 66.8197 48.0901 67.3477C47.1301 67.8757 46.0501 68.2957 44.8501 68.6077C43.6741 68.8957 42.4981 69.0397 41.3221 69.0397ZM63.2315 69.0397C61.7675 69.0397 60.4235 68.8597 59.1995 68.4997C57.9755 68.1157 56.8715 67.5517 55.8875 66.8077C54.9035 66.0637 54.0275 65.1637 53.2595 64.1077L56.3195 60.6517C57.4955 62.2837 58.6475 63.4117 59.7755 64.0357C60.9035 64.6597 62.1755 64.9717 63.5915 64.9717C64.4075 64.9717 65.1515 64.8517 65.8235 64.6117C66.4955 64.3477 67.0235 63.9997 67.4075 63.5677C67.7915 63.1117 67.9835 62.5957 67.9835 62.0197C67.9835 61.6117 67.8995 61.2397 67.7315 60.9037C67.5875 60.5437 67.3595 60.2317 67.0475 59.9677C66.7355 59.6797 66.3515 59.4157 65.8955 59.1757C65.4395 58.9357 64.9235 58.7317 64.3475 58.5637C63.7715 58.3957 63.1355 58.2397 62.4395 58.0957C61.1195 57.8317 59.9675 57.4837 58.9835 57.0517C57.9995 56.5957 57.1715 56.0437 56.4995 55.3957C55.8275 54.7237 55.3355 53.9797 55.0235 53.1637C54.7115 52.3237 54.5555 51.3757 54.5555 50.3197C54.5555 49.2637 54.7835 48.2917 55.2395 47.4037C55.7195 46.5157 56.3675 45.7477 57.1835 45.0997C57.9995 44.4517 58.9475 43.9477 60.0275 43.5877C61.1075 43.2277 62.2715 43.0477 63.5195 43.0477C64.9355 43.0477 66.1955 43.2157 67.2995 43.5517C68.4275 43.8877 69.4115 44.3917 70.2515 45.0637C71.1155 45.7117 71.8235 46.5037 72.3755 47.4397L69.2795 50.4997C68.7995 49.7557 68.2595 49.1437 67.6595 48.6637C67.0595 48.1597 66.4115 47.7877 65.7155 47.5477C65.0195 47.2837 64.2875 47.1517 63.5195 47.1517C62.6555 47.1517 61.8995 47.2717 61.2515 47.5117C60.6275 47.7517 60.1355 48.0997 59.7755 48.5557C59.4155 48.9877 59.2355 49.5157 59.2355 50.1397C59.2355 50.6197 59.3435 51.0517 59.5595 51.4357C59.7755 51.7957 60.0755 52.1197 60.4595 52.4077C60.8675 52.6957 61.3835 52.9477 62.0075 53.1637C62.6315 53.3797 63.3395 53.5717 64.1315 53.7397C65.4515 54.0037 66.6395 54.3637 67.6955 54.8197C68.7515 55.2517 69.6515 55.7797 70.3955 56.4037C71.1395 57.0037 71.7035 57.6997 72.0875 58.4917C72.4715 59.2597 72.6635 60.1237 72.6635 61.0837C72.6635 62.7397 72.2675 64.1677 71.4755 65.3677C70.7075 66.5437 69.6155 67.4557 68.1995 68.1037C66.7835 68.7277 65.1275 69.0397 63.2315 69.0397ZM77.8098 68.6797V43.4797H88.7538C90.2658 43.4797 91.6458 43.8397 92.8938 44.5597C94.1418 45.2557 95.1258 46.2157 95.8458 47.4397C96.5898 48.6397 96.9618 49.9957 96.9618 51.5077C96.9618 52.9477 96.5898 54.2797 95.8458 55.5037C95.1258 56.7037 94.1418 57.6637 92.8938 58.3837C91.6698 59.0797 90.2898 59.4277 88.7538 59.4277H82.3818V68.6797H77.8098ZM92.4258 68.6797L86.0178 57.3037L90.8418 56.4037L97.9698 68.7157L92.4258 68.6797ZM82.3818 55.3597H88.7898C89.4858 55.3597 90.0858 55.2037 90.5898 54.8917C91.1178 54.5557 91.5258 54.0997 91.8138 53.5237C92.1018 52.9477 92.2458 52.3117 92.2458 51.6157C92.2458 50.8237 92.0658 50.1397 91.7058 49.5637C91.3458 48.9877 90.8418 48.5317 90.1938 48.1957C89.5458 47.8597 88.8018 47.6917 87.9618 47.6917H82.3818V55.3597ZM120.801 68.6797L110.721 43.4797H115.833L121.449 57.9157C121.737 58.6597 121.989 59.3317 122.205 59.9317C122.421 60.5077 122.613 61.0357 122.781 61.5157C122.949 61.9957 123.093 62.4637 123.213 62.9197C123.357 63.3757 123.513 63.8557 123.681 64.3597H122.673C122.841 63.7117 123.021 63.0757 123.213 62.4517C123.405 61.8037 123.621 61.1197 123.861 60.3997C124.125 59.6797 124.437 58.8517 124.797 57.9157L130.053 43.4797H135.201L125.049 68.6797H120.801ZM139.193 68.6797V43.4797H155.681V47.7277H143.801V64.4317H155.825V68.6797H139.193ZM141.353 57.8797V53.7037H153.845V57.8797H141.353ZM161.693 68.6797V43.4797H172.637C174.149 43.4797 175.529 43.8397 176.777 44.5597C178.025 45.2557 179.009 46.2157 179.729 47.4397C180.473 48.6397 180.845 49.9957 180.845 51.5077C180.845 52.9477 180.473 54.2797 179.729 55.5037C179.009 56.7037 178.025 57.6637 176.777 58.3837C175.553 59.0797 174.173 59.4277 172.637 59.4277H166.265V68.6797H161.693ZM176.309 68.6797L169.901 57.3037L174.725 56.4037L181.853 68.7157L176.309 68.6797ZM166.265 55.3597H172.673C173.369 55.3597 173.969 55.2037 174.473 54.8917C175.001 54.5557 175.409 54.0997 175.697 53.5237C175.985 52.9477 176.129 52.3117 176.129 51.6157C176.129 50.8237 175.949 50.1397 175.589 49.5637C175.229 48.9877 174.725 48.5317 174.077 48.1957C173.429 47.8597 172.685 47.6917 171.845 47.6917H166.265V55.3597ZM196.908 68.6797L195.72 65.7277L203.28 57.2677C203.712 56.8357 204.156 56.3437 204.612 55.7917C205.068 55.2157 205.5 54.6277 205.908 54.0277C206.34 53.4037 206.688 52.8037 206.952 52.2277C207.216 51.6277 207.348 51.0757 207.348 50.5717C207.348 49.9237 207.204 49.3597 206.916 48.8797C206.652 48.3997 206.268 48.0277 205.764 47.7637C205.26 47.4997 204.636 47.3677 203.892 47.3677C203.244 47.3677 202.608 47.5597 201.984 47.9437C201.384 48.3037 200.82 48.8317 200.292 49.5277C199.788 50.1997 199.368 51.0037 199.032 51.9397L195.504 49.8517C195.936 48.4597 196.584 47.2597 197.448 46.2517C198.336 45.2197 199.368 44.4277 200.544 43.8757C201.744 43.3237 203.04 43.0477 204.432 43.0477C205.872 43.0477 207.156 43.3477 208.284 43.9477C209.412 44.5477 210.3 45.3757 210.948 46.4317C211.62 47.4877 211.956 48.7237 211.956 50.1397C211.956 50.6677 211.896 51.2197 211.776 51.7957C211.656 52.3477 211.464 52.9357 211.2 53.5597C210.96 54.1597 210.636 54.7957 210.228 55.4677C209.82 56.1157 209.328 56.7997 208.752 57.5197C208.2 58.2397 207.564 58.9957 206.844 59.7877L201.12 66.0157L200.4 64.3597H212.856V68.6797H196.908ZM217.999 69.0757C217.135 69.0757 216.463 68.8237 215.983 68.3197C215.527 67.8157 215.299 67.1077 215.299 66.1957C215.299 65.3557 215.539 64.6717 216.019 64.1437C216.523 63.5917 217.183 63.3157 217.999 63.3157C218.863 63.3157 219.523 63.5677 219.979 64.0717C220.459 64.5517 220.699 65.2597 220.699 66.1957C220.699 67.0357 220.447 67.7317 219.943 68.2837C219.463 68.8117 218.815 69.0757 217.999 69.0757ZM233.633 69.0397C231.593 69.0397 229.841 68.5237 228.377 67.4917C226.937 66.4357 225.821 64.9477 225.029 63.0277C224.261 61.0837 223.877 58.7677 223.877 56.0797C223.877 53.3917 224.261 51.0877 225.029 49.1677C225.821 47.2237 226.937 45.7357 228.377 44.7037C229.841 43.6477 231.593 43.1197 233.633 43.1197C235.673 43.1197 237.425 43.6477 238.889 44.7037C240.353 45.7357 241.469 47.2237 242.237 49.1677C243.029 51.0877 243.425 53.3917 243.425 56.0797C243.425 58.7677 243.029 61.0837 242.237 63.0277C241.469 64.9477 240.353 66.4357 238.889 67.4917C237.425 68.5237 235.673 69.0397 233.633 69.0397ZM233.633 64.9357C235.313 64.9357 236.609 64.1677 237.521 62.6317C238.457 61.0717 238.925 58.8877 238.925 56.0797C238.925 53.2477 238.457 51.0517 237.521 49.4917C236.609 47.9317 235.313 47.1517 233.633 47.1517C231.953 47.1517 230.645 47.9317 229.709 49.4917C228.797 51.0517 228.341 53.2477 228.341 56.0797C228.341 58.8877 228.797 61.0717 229.709 62.6317C230.645 64.1677 231.953 64.9357 233.633 64.9357Z" fill="#038AFF"/>
</svg>
