<svg width="211" height="92" viewBox="0 0 211 92" fill="none" xmlns="http://www.w3.org/2000/svg">
<path d="M34.247 30.2979V0.000285564H57.6194L63.9386 6.31949V23.9786L57.6194 30.2979H34.247ZM41.605 24.0219H53.9837L56.5806 21.425V8.87314L53.9837 6.27621H41.605V24.0219ZM76.389 30.2979L70.0698 23.9786V6.31949L76.389 0.000285564H96.6018V6.27621H80.0247L77.4278 8.87314V21.425L80.0247 24.0219H96.6018V30.2979H76.389ZM101.473 30.2979V24.0219H120.387L121.815 22.5936V19.6937L120.301 18.1788H106.277L100.91 12.8118V5.15087L106.061 0.000285564H127.659V6.27621H109.696L108.268 7.70452V10.4313L109.783 11.9029H123.806L129.173 17.2699V25.1473L124.023 30.2979H101.473ZM134.887 30.2979V0.000285564H157.783L163.41 5.62698V14.8894L158.389 19.9101L164.319 28.1337V30.2979H157.134L150.425 20.7758H142.245V30.2979H134.887ZM142.245 14.7595H153.888L156.052 12.5954V8.18063L153.888 6.01652H142.245V14.7595ZM10.5613 91.2979L0.000447831 63.1644V61.0003H6.92561L15.5821 84.5458H16.8805L25.5802 61.0003H32.289V63.1644L21.8147 91.2979H10.5613ZM37.0578 91.2979V61.0003H63.7197V67.2762H44.4158V73.1193H58.9586V78.9191H44.4158V85.0219H64.1525V91.2979H37.0578ZM69.8154 91.2979V61.0003H92.7117L98.3384 66.627V75.8894L93.3176 80.9101L99.2473 89.1337V91.2979H92.0624L85.3537 81.7758H77.1733V91.2979H69.8154ZM77.1733 75.7595H88.8163L90.9804 73.5954V69.1806L88.8163 67.0165H77.1733V75.7595ZM118.766 91.2979V79.1788L124.436 73.5089H137.767L139.195 72.1238V68.7045L137.767 67.2762H119.978V61.0003H141.792L146.553 65.7613V74.6775L141.749 79.4818H128.245L126.124 81.6026V85.0219H146.337V91.2979H118.766ZM160.707 91.2979V67.2762H149.323V61.0003H179.448V67.2762H168.065V91.2979H160.707ZM183.812 91.2979V61.0003H210.473V67.2762H191.17V73.1193H205.712V78.9191H191.17V85.0219H210.906V91.2979H183.812Z" fill="white"/>
</svg>
