<svg width="440" height="20" viewBox="0 0 440 20" fill="none" xmlns="http://www.w3.org/2000/svg">
<path d="M23.2581 15.1768L27.6611 3.88701H29.6287L33.9994 15.1768H31.8221L29.4029 8.75773C29.3491 8.6287 29.2739 8.42441 29.1771 8.14486C29.0911 7.8653 28.9943 7.56424 28.8868 7.24168C28.7793 6.90836 28.6825 6.60192 28.5965 6.32237C28.5105 6.03206 28.446 5.82239 28.403 5.69337L28.8062 5.67724C28.7416 5.89228 28.6664 6.13421 28.5804 6.40301C28.4943 6.67181 28.403 6.95137 28.3062 7.24168C28.2094 7.53198 28.1126 7.81154 28.0159 8.08034C27.9299 8.34915 27.8492 8.59107 27.774 8.80611L25.3547 15.1768H23.2581ZM25.2579 12.5962L25.9837 10.7738H31.1286L31.9028 12.5962H25.2579ZM35.4226 18.725V6.67719H37.3741L37.4064 8.61258L37.0677 8.46742C37.1322 8.1341 37.315 7.82229 37.6161 7.53198C37.9171 7.23092 38.2827 6.989 38.7128 6.80621C39.1536 6.62343 39.6106 6.53204 40.0837 6.53204C40.8363 6.53204 41.503 6.7202 42.0836 7.09652C42.6749 7.47285 43.1373 7.98895 43.4706 8.64483C43.8147 9.30071 43.9867 10.0587 43.9867 10.9189C43.9867 11.7683 43.8147 12.5264 43.4706 13.193C43.1373 13.8489 42.6749 14.3703 42.0836 14.7574C41.503 15.1337 40.8471 15.3219 40.1159 15.3219C39.6213 15.3219 39.1429 15.2251 38.6805 15.0316C38.2289 14.8381 37.8419 14.5854 37.5193 14.2736C37.2075 13.9618 37.0139 13.6338 36.9387 13.2898L37.4225 13.064V18.725H35.4226ZM39.7127 13.5639C40.1643 13.5639 40.5675 13.451 40.9224 13.2252C41.2772 12.9994 41.5514 12.6876 41.7449 12.2898C41.9492 11.892 42.0513 11.435 42.0513 10.9189C42.0513 10.4028 41.9546 9.95122 41.761 9.56414C41.5675 9.16631 41.2933 8.8545 40.9385 8.6287C40.5837 8.40291 40.1751 8.29001 39.7127 8.29001C39.2396 8.29001 38.8257 8.40291 38.4709 8.6287C38.1268 8.84375 37.8526 9.15018 37.6483 9.54801C37.444 9.94584 37.3419 10.4028 37.3419 10.9189C37.3419 11.435 37.444 11.892 37.6483 12.2898C37.8526 12.6876 38.1268 12.9994 38.4709 13.2252C38.8257 13.451 39.2396 13.5639 39.7127 13.5639ZM45.7548 18.725V6.67719H47.7063L47.7385 8.61258L47.3998 8.46742C47.4644 8.1341 47.6471 7.82229 47.9482 7.53198C48.2493 7.23092 48.6148 6.989 49.0449 6.80621C49.4858 6.62343 49.9427 6.53204 50.4158 6.53204C51.1685 6.53204 51.8351 6.7202 52.4157 7.09652C53.0071 7.47285 53.4694 7.98895 53.8027 8.64483C54.1468 9.30071 54.3188 10.0587 54.3188 10.9189C54.3188 11.7683 54.1468 12.5264 53.8027 13.193C53.4694 13.8489 53.0071 14.3703 52.4157 14.7574C51.8351 15.1337 51.1792 15.3219 50.4481 15.3219C49.9535 15.3219 49.475 15.2251 49.0127 15.0316C48.5611 14.8381 48.174 14.5854 47.8514 14.2736C47.5396 13.9618 47.3461 13.6338 47.2708 13.2898L47.7547 13.064V18.725H45.7548ZM50.0449 13.5639C50.4965 13.5639 50.8997 13.451 51.2545 13.2252C51.6093 12.9994 51.8835 12.6876 52.077 12.2898C52.2813 11.892 52.3835 11.435 52.3835 10.9189C52.3835 10.4028 52.2867 9.95122 52.0932 9.56414C51.8996 9.16631 51.6254 8.8545 51.2706 8.6287C50.9158 8.40291 50.5072 8.29001 50.0449 8.29001C49.5718 8.29001 49.1578 8.40291 48.803 8.6287C48.4589 8.84375 48.1847 9.15018 47.9805 9.54801C47.7762 9.94584 47.674 10.4028 47.674 10.9189C47.674 11.435 47.7762 11.892 47.9805 12.2898C48.1847 12.6876 48.4589 12.9994 48.803 13.2252C49.1578 13.451 49.5718 13.5639 50.0449 13.5639ZM56.103 15.1768V3.24188H58.1029V15.1768H56.103ZM60.6598 15.1768V6.67719H62.6435V15.1768H60.6598ZM61.6274 4.87083C61.2296 4.87083 60.9178 4.77406 60.692 4.58052C60.477 4.37623 60.3694 4.0913 60.3694 3.72573C60.3694 3.38166 60.4823 3.1021 60.7081 2.88706C60.9339 2.67202 61.2404 2.5645 61.6274 2.5645C62.036 2.5645 62.3478 2.66664 62.5629 2.87093C62.7887 3.06447 62.9016 3.3494 62.9016 3.72573C62.9016 4.05904 62.7887 4.33322 62.5629 4.54827C62.3371 4.76331 62.0253 4.87083 61.6274 4.87083ZM68.804 15.338C68.0083 15.338 67.2933 15.1445 66.6589 14.7574C66.0246 14.3703 65.5246 13.8435 65.159 13.1769C64.7934 12.5102 64.6107 11.7576 64.6107 10.9189C64.6107 10.0802 64.7934 9.32759 65.159 8.66096C65.5246 7.99433 66.0246 7.46747 66.6589 7.08039C67.2933 6.69332 68.0083 6.49978 68.804 6.49978C69.5674 6.49978 70.2609 6.64493 70.8845 6.93524C71.5082 7.22555 71.992 7.62875 72.3361 8.14486L71.2394 9.46737C71.0781 9.24158 70.8738 9.03728 70.6265 8.8545C70.3792 8.67171 70.1158 8.52656 69.8362 8.41904C69.5566 8.31152 69.2771 8.25775 68.9975 8.25775C68.5244 8.25775 68.0997 8.37603 67.7234 8.61258C67.3578 8.83837 67.0675 9.15556 66.8525 9.56414C66.6374 9.96197 66.5299 10.4136 66.5299 10.9189C66.5299 11.4243 66.6374 11.8759 66.8525 12.2737C67.0783 12.6715 67.3793 12.9887 67.7557 13.2252C68.132 13.4618 68.5513 13.5801 69.0137 13.5801C69.2932 13.5801 69.562 13.5371 69.8201 13.451C70.0889 13.3543 70.3416 13.2199 70.5781 13.0478C70.8146 12.8758 71.0351 12.6608 71.2394 12.4027L72.3361 13.7413C71.9705 14.2144 71.4652 14.6015 70.82 14.9026C70.1856 15.1929 69.5136 15.338 68.804 15.338ZM77.0627 15.338C76.3638 15.338 75.7294 15.1445 75.1595 14.7574C74.5897 14.3703 74.1327 13.8435 73.7886 13.1769C73.4446 12.5102 73.2725 11.7522 73.2725 10.9028C73.2725 10.0534 73.4446 9.29534 73.7886 8.6287C74.1327 7.96207 74.6004 7.44059 75.1918 7.06427C75.7831 6.68794 76.4498 6.49978 77.1917 6.49978C77.6218 6.49978 78.0142 6.56429 78.369 6.69332C78.7239 6.81159 79.0357 6.98363 79.3045 7.20942C79.5733 7.43522 79.7937 7.69327 79.9657 7.98358C80.1485 8.27388 80.2722 8.58569 80.3367 8.91901L79.9012 8.80611V6.67719H81.9011V15.1768H79.8851V13.1446L80.3528 13.064C80.2775 13.3543 80.1378 13.6392 79.9335 13.9188C79.7399 14.1876 79.4926 14.4295 79.1916 14.6445C78.9013 14.8488 78.5733 15.0155 78.2078 15.1445C77.8529 15.2735 77.4712 15.338 77.0627 15.338ZM77.611 13.5801C78.0734 13.5801 78.4819 13.4672 78.8368 13.2414C79.1916 13.0156 79.4658 12.7038 79.6593 12.3059C79.8636 11.8974 79.9657 11.4296 79.9657 10.9028C79.9657 10.3867 79.8636 9.92971 79.6593 9.53188C79.4658 9.13405 79.1916 8.82224 78.8368 8.59645C78.4819 8.37065 78.0734 8.25775 77.611 8.25775C77.1487 8.25775 76.7401 8.37065 76.3853 8.59645C76.0412 8.82224 75.7724 9.13405 75.5789 9.53188C75.3853 9.92971 75.2885 10.3867 75.2885 10.9028C75.2885 11.4296 75.3853 11.8974 75.5789 12.3059C75.7724 12.7038 76.0412 13.0156 76.3853 13.2414C76.7401 13.4672 77.1487 13.5801 77.611 13.5801ZM85.1203 15.1768V4.51601H87.1041V15.1768H85.1203ZM83.443 8.51581V6.67719H88.9588V8.51581H83.443ZM90.6954 15.1768V6.67719H92.6792V15.1768H90.6954ZM91.6631 4.87083C91.2653 4.87083 90.9535 4.77406 90.7277 4.58052C90.5126 4.37623 90.4051 4.0913 90.4051 3.72573C90.4051 3.38166 90.518 3.1021 90.7438 2.88706C90.9696 2.67202 91.276 2.5645 91.6631 2.5645C92.0717 2.5645 92.3835 2.66664 92.5985 2.87093C92.8243 3.06447 92.9372 3.3494 92.9372 3.72573C92.9372 4.05904 92.8243 4.33322 92.5985 4.54827C92.3727 4.76331 92.0609 4.87083 91.6631 4.87083ZM99.0816 15.338C98.2321 15.338 97.4741 15.1499 96.8075 14.7736C96.1409 14.3865 95.614 13.8596 95.2269 13.193C94.8398 12.5264 94.6463 11.7683 94.6463 10.9189C94.6463 10.0695 94.8398 9.31146 95.2269 8.64483C95.614 7.9782 96.1409 7.45672 96.8075 7.08039C97.4741 6.69332 98.2321 6.49978 99.0816 6.49978C99.9202 6.49978 100.673 6.69332 101.34 7.08039C102.006 7.45672 102.528 7.9782 102.904 8.64483C103.291 9.31146 103.485 10.0695 103.485 10.9189C103.485 11.7683 103.291 12.5264 102.904 13.193C102.528 13.8596 102.006 14.3865 101.34 14.7736C100.673 15.1499 99.9202 15.338 99.0816 15.338ZM99.0816 13.5801C99.5439 13.5801 99.9525 13.4618 100.307 13.2252C100.673 12.9887 100.958 12.6715 101.162 12.2737C101.377 11.8759 101.479 11.4243 101.469 10.9189C101.479 10.4028 101.377 9.94584 101.162 9.54801C100.958 9.15018 100.673 8.83837 100.307 8.61258C99.9525 8.37603 99.5439 8.25775 99.0816 8.25775C98.6192 8.25775 98.1999 8.37603 97.8236 8.61258C97.458 8.83837 97.1731 9.15556 96.9688 9.56414C96.7645 9.96197 96.6623 10.4136 96.6623 10.9189C96.6623 11.4243 96.7645 11.8759 96.9688 12.2737C97.1731 12.6715 97.458 12.9887 97.8236 13.2252C98.1999 13.4618 98.6192 13.5801 99.0816 13.5801ZM105.259 15.1768V6.67719H107.194L107.227 8.41904L106.856 8.61258C106.963 8.2255 107.173 7.87605 107.485 7.56424C107.797 7.24168 108.168 6.98363 108.598 6.79009C109.028 6.59655 109.469 6.49978 109.92 6.49978C110.565 6.49978 111.103 6.6288 111.533 6.88686C111.974 7.14491 112.302 7.53199 112.517 8.04809C112.743 8.56419 112.855 9.20932 112.855 9.98347V15.1768H110.872V10.1286C110.872 9.69854 110.813 9.34372 110.694 9.06417C110.576 8.77386 110.393 8.56419 110.146 8.43517C109.899 8.29539 109.598 8.23087 109.243 8.24163C108.952 8.24163 108.684 8.29001 108.436 8.38678C108.2 8.4728 107.99 8.60182 107.807 8.77386C107.635 8.93514 107.495 9.1233 107.388 9.33834C107.291 9.55339 107.243 9.78993 107.243 10.048V15.1768H106.259C106.065 15.1768 105.883 15.1768 105.711 15.1768C105.549 15.1768 105.399 15.1768 105.259 15.1768ZM117.926 15.338C117.173 15.338 116.496 15.2144 115.894 14.9671C115.302 14.709 114.818 14.3435 114.442 13.8704L115.732 12.7575C116.055 13.1231 116.415 13.3865 116.813 13.5478C117.211 13.7091 117.63 13.7897 118.071 13.7897C118.254 13.7897 118.415 13.7682 118.555 13.7252C118.705 13.6822 118.834 13.6177 118.942 13.5317C119.049 13.4457 119.13 13.3489 119.184 13.2414C119.248 13.1231 119.281 12.9941 119.281 12.8543C119.281 12.5962 119.184 12.392 118.99 12.2414C118.883 12.1662 118.711 12.0855 118.474 11.9995C118.248 11.9135 117.953 11.8275 117.587 11.7414C117.006 11.5909 116.523 11.4189 116.136 11.2253C115.748 11.0211 115.447 10.7953 115.232 10.548C115.05 10.3437 114.91 10.1125 114.813 9.85445C114.727 9.5964 114.684 9.31684 114.684 9.01578C114.684 8.63946 114.765 8.30076 114.926 7.9997C115.098 7.68789 115.329 7.41909 115.619 7.19329C115.91 6.9675 116.248 6.79546 116.635 6.67719C117.023 6.55892 117.426 6.49978 117.845 6.49978C118.275 6.49978 118.689 6.55354 119.087 6.66106C119.496 6.76858 119.872 6.92449 120.216 7.12878C120.571 7.32232 120.872 7.55887 121.119 7.83842L120.022 9.04804C119.818 8.8545 119.592 8.68246 119.345 8.53193C119.108 8.3814 118.867 8.26313 118.619 8.17711C118.372 8.08034 118.141 8.03196 117.926 8.03196C117.721 8.03196 117.539 8.05346 117.377 8.09647C117.216 8.12873 117.082 8.18249 116.974 8.25775C116.867 8.33302 116.781 8.42979 116.716 8.54806C116.662 8.65558 116.635 8.78461 116.635 8.93514C116.646 9.06417 116.678 9.18781 116.732 9.30609C116.797 9.41361 116.883 9.505 116.99 9.58027C117.109 9.65553 117.286 9.74155 117.523 9.83832C117.759 9.93509 118.066 10.0265 118.442 10.1125C118.969 10.2523 119.41 10.4082 119.764 10.5802C120.119 10.7523 120.399 10.9512 120.603 11.177C120.807 11.3705 120.952 11.5963 121.038 11.8543C121.125 12.1124 121.168 12.3973 121.168 12.7091C121.168 13.2145 121.022 13.6661 120.732 14.0639C120.452 14.4617 120.065 14.7736 119.571 14.9993C119.087 15.2251 118.539 15.338 117.926 15.338Z" fill="white"/>
<path d="M145 9.90332L408 9.90334" stroke="white" stroke-width="1.61282" stroke-dasharray="3.23 3.23"/>
<circle cx="429.902" cy="9.67693" r="9.19308" stroke="white" stroke-width="0.967693"/>
<path d="M427.231 12.8702C426.605 12.8702 426.096 12.7444 425.702 12.4928C425.315 12.2412 425.031 11.8799 424.851 11.409C424.67 10.938 424.58 10.38 424.58 9.73488C424.58 9.03814 424.663 8.44463 424.831 7.95433C424.999 7.46403 425.276 7.08986 425.663 6.8318C426.05 6.57375 426.573 6.44473 427.231 6.44473C427.883 6.44473 428.402 6.57375 428.789 6.8318C429.176 7.08986 429.453 7.46403 429.621 7.95433C429.789 8.44463 429.873 9.03814 429.873 9.73488C429.873 10.38 429.783 10.938 429.602 11.409C429.428 11.8799 429.147 12.2412 428.76 12.4928C428.373 12.7444 427.863 12.8702 427.231 12.8702ZM427.231 12.1928C427.689 12.1928 428.05 12.0928 428.315 11.8928C428.586 11.6864 428.779 11.3993 428.895 11.0316C429.018 10.6574 429.079 10.2252 429.079 9.73488C429.079 8.88976 428.944 8.24464 428.673 7.7995C428.408 7.34791 427.928 7.12211 427.231 7.12211C426.767 7.12211 426.399 7.22211 426.128 7.4221C425.857 7.62209 425.663 7.91885 425.547 8.31237C425.431 8.69945 425.373 9.17362 425.373 9.73488C425.373 10.2252 425.431 10.6574 425.547 11.0316C425.67 11.3993 425.867 11.6864 426.138 11.8928C426.415 12.0928 426.779 12.1928 427.231 12.1928ZM432.519 12.8702C432.235 12.8702 431.932 12.8444 431.609 12.7928C431.287 12.7412 431.032 12.6799 430.845 12.6089V11.9122C431.09 12.009 431.345 12.0799 431.609 12.1251C431.874 12.1702 432.145 12.1928 432.422 12.1928C432.977 12.1928 433.387 12.109 433.651 11.9412C433.922 11.7735 434.058 11.48 434.058 11.0606C434.058 10.6606 433.932 10.3703 433.68 10.1897C433.429 10.0091 433.077 9.91874 432.626 9.91874H431.726L431.803 9.31877H432.548C433.013 9.31877 433.358 9.21878 433.584 9.01879C433.809 8.81235 433.922 8.52527 433.922 8.15754C433.922 7.80272 433.803 7.54145 433.564 7.37371C433.332 7.20598 432.958 7.12211 432.442 7.12211C432.184 7.12211 431.922 7.14792 431.658 7.19953C431.4 7.25114 431.168 7.31888 430.961 7.40274V6.71568C431.142 6.64472 431.377 6.58343 431.668 6.53182C431.964 6.47376 432.258 6.44473 432.548 6.44473C433.29 6.44473 433.835 6.60601 434.184 6.92857C434.538 7.24469 434.716 7.65112 434.716 8.14787C434.716 8.46398 434.632 8.76074 434.464 9.03814C434.303 9.3091 434.042 9.49941 433.68 9.60908C434.093 9.6994 434.39 9.88004 434.571 10.151C434.758 10.4155 434.851 10.7187 434.851 11.0606C434.851 11.667 434.642 12.1219 434.222 12.4251C433.803 12.7218 433.235 12.8702 432.519 12.8702Z" fill="white"/>
</svg>
