<svg width="441" height="20" viewBox="0 0 441 20" fill="none" xmlns="http://www.w3.org/2000/svg">
<path d="M1.51605 15.1768V3.88701H6.04808C6.86524 3.88701 7.60176 4.02141 8.25764 4.29021C8.92428 4.55902 9.49414 4.94609 9.96724 5.45145C10.4511 5.9568 10.8167 6.55354 11.064 7.24168C11.322 7.92981 11.451 8.69322 11.451 9.53188C11.451 10.3706 11.322 11.1393 11.064 11.8382C10.8167 12.5264 10.4565 13.1231 9.98336 13.6284C9.51027 14.123 8.94041 14.5047 8.27377 14.7736C7.60714 15.0424 6.86524 15.1768 6.04808 15.1768H1.51605ZM3.61272 13.5478L3.45144 13.2414H5.96744C6.49429 13.2414 6.96201 13.1554 7.37059 12.9833C7.78993 12.8113 8.14475 12.564 8.43505 12.2414C8.72536 11.9189 8.94578 11.5318 9.09631 11.0802C9.24684 10.6178 9.32211 10.1017 9.32211 9.53188C9.32211 8.96202 9.24684 8.45129 9.09631 7.9997C8.94578 7.53736 8.71999 7.14491 8.41893 6.82234C8.12862 6.49978 7.77917 6.25248 7.37059 6.08045C6.96201 5.90841 6.49429 5.82239 5.96744 5.82239H3.40305L3.61272 5.54822V13.5478ZM17.3513 15.338C16.4589 15.338 15.6686 15.1499 14.9805 14.7736C14.3031 14.3972 13.7708 13.8865 13.3838 13.2414C13.0074 12.5855 12.8193 11.8382 12.8193 10.9996C12.8193 10.3329 12.9268 9.72542 13.1418 9.17706C13.3569 8.6287 13.6526 8.15561 14.0289 7.75778C14.416 7.3492 14.8729 7.03739 15.3998 6.82234C15.9374 6.59655 16.5234 6.48365 17.1578 6.48365C17.7169 6.48365 18.2384 6.59117 18.7222 6.80621C19.2061 7.02126 19.6254 7.31694 19.9802 7.69327C20.335 8.05884 20.6038 8.49968 20.7866 9.01578C20.9802 9.52113 21.0716 10.0749 21.0608 10.677L21.0447 11.3705H14.1579L13.787 10.0157H19.3835L19.1254 10.2899V9.93509C19.0932 9.60177 18.9856 9.31146 18.8028 9.06417C18.6201 8.80611 18.3835 8.6072 18.0932 8.46742C17.8137 8.31689 17.5018 8.24163 17.1578 8.24163C16.6309 8.24163 16.1847 8.34377 15.8191 8.54806C15.4643 8.75235 15.1955 9.04804 15.0127 9.43511C14.8299 9.81144 14.7385 10.2845 14.7385 10.8544C14.7385 11.4028 14.8514 11.8812 15.0772 12.2898C15.3138 12.6984 15.6417 13.0156 16.0611 13.2414C16.4911 13.4564 16.9911 13.5639 17.561 13.5639C17.9588 13.5639 18.3244 13.4994 18.6577 13.3704C18.991 13.2414 19.3512 13.0102 19.7383 12.6769L20.7221 14.0478C20.4318 14.3166 20.0985 14.5478 19.7222 14.7413C19.3566 14.9241 18.9695 15.0692 18.5609 15.1768C18.1523 15.2843 17.7491 15.338 17.3513 15.338ZM25.6563 15.338C24.9037 15.338 24.2263 15.2144 23.6242 14.9671C23.0328 14.709 22.549 14.3435 22.1726 13.8704L23.4629 12.7575C23.7855 13.1231 24.1457 13.3865 24.5435 13.5478C24.9413 13.7091 25.3606 13.7897 25.8015 13.7897C25.9843 13.7897 26.1456 13.7682 26.2853 13.7252C26.4359 13.6822 26.5649 13.6177 26.6724 13.5317C26.7799 13.4457 26.8606 13.3489 26.9143 13.2414C26.9788 13.1231 27.0111 12.9941 27.0111 12.8543C27.0111 12.5962 26.9143 12.392 26.7208 12.2414C26.6133 12.1662 26.4412 12.0855 26.2047 11.9995C25.9789 11.9135 25.6832 11.8275 25.3176 11.7414C24.737 11.5909 24.2532 11.4189 23.8661 11.2253C23.479 11.0211 23.178 10.7953 22.9629 10.548C22.7801 10.3437 22.6404 10.1125 22.5436 9.85445C22.4576 9.5964 22.4146 9.31684 22.4146 9.01578C22.4146 8.63946 22.4952 8.30076 22.6565 7.9997C22.8285 7.68789 23.0597 7.41909 23.35 7.19329C23.6403 6.9675 23.979 6.79546 24.3661 6.67719C24.7532 6.55892 25.1564 6.49978 25.5757 6.49978C26.0058 6.49978 26.4197 6.55354 26.8176 6.66106C27.2261 6.76858 27.6025 6.92449 27.9465 7.12878C28.3014 7.32232 28.6024 7.55887 28.8497 7.83842L27.753 9.04804C27.5487 8.8545 27.3229 8.68246 27.0756 8.53193C26.8391 8.3814 26.5971 8.26313 26.3498 8.17711C26.1025 8.08034 25.8714 8.03196 25.6563 8.03196C25.452 8.03196 25.2693 8.05346 25.108 8.09647C24.9467 8.12873 24.8123 8.18249 24.7048 8.25775C24.5972 8.33302 24.5112 8.42979 24.4467 8.54806C24.393 8.65558 24.3661 8.78461 24.3661 8.93514C24.3768 9.06417 24.4091 9.18781 24.4628 9.30609C24.5274 9.41361 24.6134 9.505 24.7209 9.58027C24.8392 9.65553 25.0166 9.74155 25.2531 9.83832C25.4897 9.93509 25.7961 10.0265 26.1724 10.1125C26.6993 10.2523 27.1401 10.4082 27.4949 10.5802C27.8498 10.7523 28.1293 10.9512 28.3336 11.177C28.5379 11.3705 28.6831 11.5963 28.7691 11.8543C28.8551 12.1124 28.8981 12.3973 28.8981 12.7091C28.8981 13.2145 28.7529 13.6661 28.4626 14.0639C28.1831 14.4617 27.796 14.7736 27.3014 14.9993C26.8176 15.2251 26.2692 15.338 25.6563 15.338ZM34.2906 15.338C33.4949 15.338 32.7799 15.1445 32.1455 14.7574C31.5112 14.3703 31.0112 13.8435 30.6456 13.1769C30.28 12.5102 30.0973 11.7576 30.0973 10.9189C30.0973 10.0802 30.28 9.32759 30.6456 8.66096C31.0112 7.99433 31.5112 7.46747 32.1455 7.08039C32.7799 6.69332 33.4949 6.49978 34.2906 6.49978C35.054 6.49978 35.7475 6.64493 36.3711 6.93524C36.9948 7.22555 37.4786 7.62875 37.8227 8.14486L36.726 9.46737C36.5647 9.24158 36.3604 9.03728 36.1131 8.8545C35.8658 8.67171 35.6024 8.52656 35.3228 8.41904C35.0432 8.31152 34.7637 8.25775 34.4841 8.25775C34.011 8.25775 33.5863 8.37603 33.21 8.61258C32.8444 8.83837 32.5541 9.15556 32.3391 9.56414C32.124 9.96197 32.0165 10.4136 32.0165 10.9189C32.0165 11.4243 32.124 11.8759 32.3391 12.2737C32.5649 12.6715 32.8659 12.9887 33.2423 13.2252C33.6186 13.4618 34.0379 13.5801 34.5003 13.5801C34.7798 13.5801 35.0486 13.5371 35.3067 13.451C35.5755 13.3543 35.8282 13.2199 36.0647 13.0478C36.3012 12.8758 36.5217 12.6608 36.726 12.4027L37.8227 13.7413C37.4571 14.2144 36.9517 14.6015 36.3066 14.9026C35.6722 15.1929 35.0002 15.338 34.2906 15.338ZM39.3397 15.1768V6.67719H41.2912L41.3235 9.38673L41.0493 8.77386C41.1676 8.34377 41.3719 7.95669 41.6622 7.61263C41.9525 7.26856 42.2858 6.99975 42.6621 6.80621C43.0492 6.60192 43.4524 6.49978 43.8718 6.49978C44.0545 6.49978 44.2266 6.51591 44.3879 6.54816C44.5599 6.58042 44.6997 6.61805 44.8072 6.66106L44.275 8.83837C44.1567 8.77386 44.0115 8.7201 43.8395 8.67709C43.6675 8.63408 43.4954 8.61258 43.3234 8.61258C43.0546 8.61258 42.7965 8.66634 42.5492 8.77386C42.3127 8.87063 42.103 9.0104 41.9202 9.19319C41.7375 9.37598 41.5923 9.59102 41.4848 9.83832C41.388 10.0749 41.3396 10.3437 41.3396 10.6447V15.1768H39.3397ZM46.3539 15.1768V6.67719H48.3376V15.1768H46.3539ZM47.3216 4.87083C46.9237 4.87083 46.6119 4.77406 46.3861 4.58052C46.1711 4.37623 46.0636 4.0913 46.0636 3.72573C46.0636 3.38166 46.1765 3.1021 46.4023 2.88706C46.628 2.67202 46.9345 2.5645 47.3216 2.5645C47.7301 2.5645 48.042 2.66664 48.257 2.87093C48.4828 3.06447 48.5957 3.3494 48.5957 3.72573C48.5957 4.05904 48.4828 4.33322 48.257 4.54827C48.0312 4.76331 47.7194 4.87083 47.3216 4.87083ZM50.8531 18.725V6.67719H52.8046L52.8369 8.61258L52.4982 8.46742C52.5627 8.1341 52.7455 7.82229 53.0466 7.53198C53.3476 7.23092 53.7132 6.989 54.1433 6.80621C54.5841 6.62343 55.0411 6.53204 55.5142 6.53204C56.2668 6.53204 56.9335 6.7202 57.5141 7.09652C58.1055 7.47285 58.5678 7.98895 58.9011 8.64483C59.2452 9.30071 59.4172 10.0587 59.4172 10.9189C59.4172 11.7683 59.2452 12.5264 58.9011 13.193C58.5678 13.8489 58.1055 14.3703 57.5141 14.7574C56.9335 15.1337 56.2776 15.3219 55.5464 15.3219C55.0518 15.3219 54.5734 15.2251 54.111 15.0316C53.6594 14.8381 53.2724 14.5854 52.9498 14.2736C52.638 13.9618 52.4445 13.6338 52.3692 13.2898L52.853 13.064V18.725H50.8531ZM55.1432 13.5639C55.5948 13.5639 55.998 13.451 56.3529 13.2252C56.7077 12.9994 56.9819 12.6876 57.1754 12.2898C57.3797 11.892 57.4818 11.435 57.4818 10.9189C57.4818 10.4028 57.3851 9.95122 57.1915 9.56414C56.998 9.16631 56.7238 8.8545 56.369 8.6287C56.0142 8.40291 55.6056 8.29001 55.1432 8.29001C54.6701 8.29001 54.2562 8.40291 53.9014 8.6287C53.5573 8.84375 53.2831 9.15018 53.0788 9.54801C52.8745 9.94584 52.7724 10.4028 52.7724 10.9189C52.7724 11.435 52.8745 11.892 53.0788 12.2898C53.2831 12.6876 53.5573 12.9994 53.9014 13.2252C54.2562 13.451 54.6701 13.5639 55.1432 13.5639ZM62.1046 15.1768V4.51601H64.0883V15.1768H62.1046ZM60.4272 8.51581V6.67719H65.9431V8.51581H60.4272ZM67.6796 15.1768V6.67719H69.6634V15.1768H67.6796ZM68.6473 4.87083C68.2495 4.87083 67.9377 4.77406 67.7119 4.58052C67.4969 4.37623 67.3893 4.0913 67.3893 3.72573C67.3893 3.38166 67.5022 3.1021 67.728 2.88706C67.9538 2.67202 68.2603 2.5645 68.6473 2.5645C69.0559 2.5645 69.3677 2.66664 69.5828 2.87093C69.8086 3.06447 69.9215 3.3494 69.9215 3.72573C69.9215 4.05904 69.8086 4.33322 69.5828 4.54827C69.357 4.76331 69.0452 4.87083 68.6473 4.87083ZM76.0658 15.338C75.2164 15.338 74.4584 15.1499 73.7917 14.7736C73.1251 14.3865 72.5982 13.8596 72.2112 13.193C71.8241 12.5264 71.6306 11.7683 71.6306 10.9189C71.6306 10.0695 71.8241 9.31146 72.2112 8.64483C72.5982 7.9782 73.1251 7.45672 73.7917 7.08039C74.4584 6.69332 75.2164 6.49978 76.0658 6.49978C76.9045 6.49978 77.6571 6.69332 78.3238 7.08039C78.9904 7.45672 79.5119 7.9782 79.8882 8.64483C80.2753 9.31146 80.4688 10.0695 80.4688 10.9189C80.4688 11.7683 80.2753 12.5264 79.8882 13.193C79.5119 13.8596 78.9904 14.3865 78.3238 14.7736C77.6571 15.1499 76.9045 15.338 76.0658 15.338ZM76.0658 13.5801C76.5282 13.5801 76.9367 13.4618 77.2916 13.2252C77.6571 12.9887 77.9421 12.6715 78.1464 12.2737C78.3614 11.8759 78.4635 11.4243 78.4528 10.9189C78.4635 10.4028 78.3614 9.94584 78.1464 9.54801C77.9421 9.15018 77.6571 8.83837 77.2916 8.61258C76.9367 8.37603 76.5282 8.25775 76.0658 8.25775C75.6035 8.25775 75.1841 8.37603 74.8078 8.61258C74.4422 8.83837 74.1573 9.15556 73.953 9.56414C73.7487 9.96197 73.6466 10.4136 73.6466 10.9189C73.6466 11.4243 73.7487 11.8759 73.953 12.2737C74.1573 12.6715 74.4422 12.9887 74.8078 13.2252C75.1841 13.4618 75.6035 13.5801 76.0658 13.5801ZM82.2433 15.1768V6.67719H84.1787L84.2109 8.41904L83.84 8.61258C83.9475 8.2255 84.1572 7.87605 84.469 7.56424C84.7808 7.24168 85.1517 6.98363 85.5818 6.79009C86.0119 6.59655 86.4528 6.49978 86.9043 6.49978C87.5495 6.49978 88.0871 6.6288 88.5172 6.88686C88.958 7.14491 89.2859 7.53199 89.501 8.04809C89.7268 8.56419 89.8397 9.20932 89.8397 9.98347V15.1768H87.8559V10.1286C87.8559 9.69854 87.7968 9.34372 87.6785 9.06417C87.5602 8.77386 87.3774 8.56419 87.1301 8.43517C86.8828 8.29539 86.5818 8.23087 86.227 8.24163C85.9367 8.24163 85.6679 8.29001 85.4206 8.38678C85.184 8.4728 84.9743 8.60182 84.7916 8.77386C84.6195 8.93514 84.4797 9.1233 84.3722 9.33834C84.2754 9.55339 84.2271 9.78993 84.2271 10.048V15.1768H83.2432C83.0497 15.1768 82.8669 15.1768 82.6949 15.1768C82.5336 15.1768 82.3831 15.1768 82.2433 15.1768Z" fill="white"/>
<path d="M156.242 9.67676L408.206 9.67674" stroke="white" stroke-width="1.61282" stroke-dasharray="3.23 3.23"/>
<circle cx="430.362" cy="9.67693" r="9.19308" stroke="white" stroke-width="0.967693"/>
<path d="M427.692 12.8702C427.066 12.8702 426.557 12.7444 426.163 12.4928C425.776 12.2412 425.492 11.8799 425.311 11.409C425.131 10.938 425.04 10.38 425.04 9.73488C425.04 9.03814 425.124 8.44463 425.292 7.95433C425.46 7.46403 425.737 7.08986 426.124 6.8318C426.511 6.57375 427.034 6.44473 427.692 6.44473C428.344 6.44473 428.863 6.57375 429.25 6.8318C429.637 7.08986 429.914 7.46403 430.082 7.95433C430.25 8.44463 430.334 9.03814 430.334 9.73488C430.334 10.38 430.243 10.938 430.063 11.409C429.889 11.8799 429.608 12.2412 429.221 12.4928C428.834 12.7444 428.324 12.8702 427.692 12.8702ZM427.692 12.1928C428.15 12.1928 428.511 12.0928 428.776 11.8928C429.047 11.6864 429.24 11.3993 429.356 11.0316C429.479 10.6574 429.54 10.2252 429.54 9.73488C429.54 8.88976 429.405 8.24464 429.134 7.7995C428.869 7.34791 428.389 7.12211 427.692 7.12211C427.227 7.12211 426.86 7.22211 426.589 7.4221C426.318 7.62209 426.124 7.91885 426.008 8.31237C425.892 8.69945 425.834 9.17362 425.834 9.73488C425.834 10.2252 425.892 10.6574 426.008 11.0316C426.131 11.3993 426.328 11.6864 426.598 11.8928C426.876 12.0928 427.24 12.1928 427.692 12.1928ZM431.306 12.7734V12.3477C431.474 11.9412 431.712 11.5703 432.022 11.2348C432.332 10.8993 432.664 10.5832 433.019 10.2865C433.374 9.98971 433.648 9.74133 433.841 9.54134C434.041 9.3349 434.18 9.13814 434.257 8.95105C434.335 8.75751 434.374 8.53172 434.374 8.27367C434.374 7.89949 434.277 7.61564 434.083 7.4221C433.89 7.22211 433.528 7.12211 432.999 7.12211C432.761 7.12211 432.516 7.14792 432.264 7.19953C432.012 7.24469 431.774 7.31243 431.548 7.40274V6.69633C431.754 6.62536 432.003 6.5673 432.293 6.52214C432.583 6.47053 432.861 6.44473 433.125 6.44473C433.796 6.44473 434.303 6.60923 434.644 6.93825C434.993 7.26081 435.167 7.70595 435.167 8.27367C435.167 8.58333 435.112 8.85751 435.003 9.09621C434.893 9.32845 434.741 9.55102 434.548 9.76391C434.354 9.97035 434.128 10.1897 433.87 10.4219C433.554 10.6993 433.251 10.9735 432.961 11.2445C432.677 11.509 432.451 11.8122 432.283 12.1541H435.235V12.7734H431.306Z" fill="white"/>
</svg>
