<svg width="441" height="20" viewBox="0 0 441 20" fill="none" xmlns="http://www.w3.org/2000/svg">
<path d="M42.5161 15.1768V3.88701H47.0481C47.8652 3.88701 48.6018 4.02141 49.2576 4.29021C49.9243 4.55902 50.4941 4.94609 50.9672 5.45145C51.4511 5.9568 51.8167 6.55354 52.064 7.24168C52.322 7.92981 52.451 8.69322 52.451 9.53188C52.451 10.3706 52.322 11.1393 52.064 11.8382C51.8167 12.5264 51.4565 13.1231 50.9834 13.6284C50.5103 14.123 49.9404 14.5047 49.2738 14.7736C48.6071 15.0424 47.8652 15.1768 47.0481 15.1768H42.5161ZM44.6127 13.5478L44.4514 13.2414H46.9674C47.4943 13.2414 47.962 13.1554 48.3706 12.9833C48.7899 12.8113 49.1447 12.564 49.4351 12.2414C49.7254 11.9189 49.9458 11.5318 50.0963 11.0802C50.2468 10.6178 50.3221 10.1017 50.3221 9.53188C50.3221 8.96202 50.2468 8.45129 50.0963 7.9997C49.9458 7.53736 49.72 7.14491 49.4189 6.82234C49.1286 6.49978 48.7792 6.25248 48.3706 6.08045C47.962 5.90841 47.4943 5.82239 46.9674 5.82239H44.4031L44.6127 5.54822V13.5478ZM58.3513 15.338C57.4589 15.338 56.6686 15.1499 55.9805 14.7736C55.3031 14.3972 54.7708 13.8865 54.3838 13.2414C54.0074 12.5855 53.8193 11.8382 53.8193 10.9996C53.8193 10.3329 53.9268 9.72542 54.1418 9.17706C54.3569 8.6287 54.6526 8.15561 55.0289 7.75778C55.416 7.3492 55.8729 7.03739 56.3998 6.82234C56.9374 6.59655 57.5234 6.48365 58.1578 6.48365C58.7169 6.48365 59.2384 6.59117 59.7222 6.80621C60.2061 7.02126 60.6254 7.31694 60.9802 7.69327C61.335 8.05884 61.6038 8.49968 61.7866 9.01578C61.9802 9.52113 62.0716 10.0749 62.0608 10.677L62.0447 11.3705H55.1579L54.787 10.0157H60.3835L60.1254 10.2899V9.93509C60.0932 9.60177 59.9856 9.31146 59.8028 9.06417C59.6201 8.80611 59.3835 8.6072 59.0932 8.46742C58.8137 8.31689 58.5018 8.24163 58.1578 8.24163C57.6309 8.24163 57.1847 8.34377 56.8191 8.54806C56.4643 8.75235 56.1955 9.04804 56.0127 9.43511C55.8299 9.81144 55.7385 10.2845 55.7385 10.8544C55.7385 11.4028 55.8514 11.8812 56.0772 12.2898C56.3138 12.6984 56.6417 13.0156 57.0611 13.2414C57.4911 13.4564 57.9911 13.5639 58.561 13.5639C58.9588 13.5639 59.3244 13.4994 59.6577 13.3704C59.991 13.2414 60.3512 13.0102 60.7383 12.6769L61.7221 14.0478C61.4318 14.3166 61.0985 14.5478 60.7222 14.7413C60.3566 14.9241 59.9695 15.0692 59.5609 15.1768C59.1523 15.2843 58.7491 15.338 58.3513 15.338ZM66.6563 15.338C65.9037 15.338 65.2263 15.2144 64.6242 14.9671C64.0328 14.709 63.549 14.3435 63.1726 13.8704L64.4629 12.7575C64.7855 13.1231 65.1457 13.3865 65.5435 13.5478C65.9413 13.7091 66.3606 13.7897 66.8015 13.7897C66.9843 13.7897 67.1456 13.7682 67.2853 13.7252C67.4359 13.6822 67.5649 13.6177 67.6724 13.5317C67.7799 13.4457 67.8606 13.3489 67.9143 13.2414C67.9788 13.1231 68.0111 12.9941 68.0111 12.8543C68.0111 12.5962 67.9143 12.392 67.7208 12.2414C67.6133 12.1662 67.4412 12.0855 67.2047 11.9995C66.9789 11.9135 66.6832 11.8275 66.3176 11.7414C65.737 11.5909 65.2532 11.4189 64.8661 11.2253C64.479 11.0211 64.178 10.7953 63.9629 10.548C63.7801 10.3437 63.6404 10.1125 63.5436 9.85445C63.4576 9.5964 63.4146 9.31684 63.4146 9.01578C63.4146 8.63946 63.4952 8.30076 63.6565 7.9997C63.8285 7.68789 64.0597 7.41909 64.35 7.19329C64.6403 6.9675 64.979 6.79546 65.3661 6.67719C65.7532 6.55892 66.1564 6.49978 66.5757 6.49978C67.0058 6.49978 67.4197 6.55354 67.8176 6.66106C68.2261 6.76858 68.6025 6.92449 68.9465 7.12878C69.3014 7.32232 69.6024 7.55887 69.8497 7.83842L68.753 9.04804C68.5487 8.8545 68.3229 8.68246 68.0756 8.53193C67.8391 8.3814 67.5971 8.26313 67.3498 8.17711C67.1025 8.08034 66.8714 8.03196 66.6563 8.03196C66.452 8.03196 66.2693 8.05346 66.108 8.09647C65.9467 8.12873 65.8123 8.18249 65.7048 8.25775C65.5972 8.33302 65.5112 8.42979 65.4467 8.54806C65.393 8.65558 65.3661 8.78461 65.3661 8.93514C65.3768 9.06417 65.4091 9.18781 65.4628 9.30609C65.5274 9.41361 65.6134 9.505 65.7209 9.58027C65.8392 9.65553 66.0166 9.74155 66.2531 9.83832C66.4897 9.93509 66.7961 10.0265 67.1724 10.1125C67.6993 10.2523 68.1401 10.4082 68.4949 10.5802C68.8498 10.7523 69.1293 10.9512 69.3336 11.177C69.5379 11.3705 69.6831 11.5963 69.7691 11.8543C69.8551 12.1124 69.8981 12.3973 69.8981 12.7091C69.8981 13.2145 69.7529 13.6661 69.4626 14.0639C69.1831 14.4617 68.796 14.7736 68.3014 14.9993C67.8176 15.2251 67.2692 15.338 66.6563 15.338ZM71.8714 15.1768V6.67719H73.8552V15.1768H71.8714ZM72.8391 4.87083C72.4413 4.87083 72.1295 4.77406 71.9037 4.58052C71.6886 4.37623 71.5811 4.0913 71.5811 3.72573C71.5811 3.38166 71.694 3.1021 71.9198 2.88706C72.1456 2.67202 72.452 2.5645 72.8391 2.5645C73.2477 2.5645 73.5595 2.66664 73.7745 2.87093C74.0003 3.06447 74.1132 3.3494 74.1132 3.72573C74.1132 4.05904 74.0003 4.33322 73.7745 4.54827C73.5487 4.76331 73.2369 4.87083 72.8391 4.87083ZM80.1931 18.8862C79.5587 18.8862 78.9243 18.7895 78.2899 18.5959C77.6663 18.4024 77.161 18.1497 76.7739 17.8379L77.4835 16.3702C77.7093 16.5315 77.962 16.6713 78.2416 16.7896C78.5211 16.9079 78.8168 16.9992 79.1286 17.0638C79.4512 17.1283 79.7684 17.1605 80.0802 17.1605C80.65 17.1605 81.1231 17.0691 81.4995 16.8863C81.8865 16.7143 82.1768 16.4455 82.3704 16.0799C82.5639 15.7251 82.6607 15.2789 82.6607 14.7413V13.1769L82.951 13.2898C82.8865 13.6231 82.7091 13.9403 82.4188 14.2413C82.1285 14.5424 81.7629 14.7897 81.322 14.9832C80.8812 15.166 80.4296 15.2574 79.9673 15.2574C79.1609 15.2574 78.4458 15.0692 77.8222 14.6929C77.2093 14.3166 76.7201 13.8059 76.3546 13.1607C75.9997 12.5049 75.8223 11.7522 75.8223 10.9028C75.8223 10.0534 75.9997 9.30071 76.3546 8.64483C76.7094 7.9782 77.1932 7.45672 77.8061 7.08039C78.4297 6.69332 79.1286 6.49978 79.9028 6.49978C80.2253 6.49978 80.5371 6.53741 80.8382 6.61268C81.1393 6.68794 81.4134 6.79546 81.6607 6.93524C81.9188 7.07502 82.15 7.23092 82.3542 7.40296C82.5585 7.57499 82.7252 7.75778 82.8542 7.95132C82.9832 8.14486 83.0639 8.33302 83.0961 8.51581L82.6768 8.64483L82.7091 6.67719H84.6606V14.5961C84.6606 15.2843 84.5584 15.8918 84.3541 16.4186C84.1499 16.9455 83.8542 17.3917 83.4671 17.7573C83.08 18.1336 82.6123 18.4132 82.0639 18.5959C81.5156 18.7895 80.892 18.8862 80.1931 18.8862ZM80.2737 13.5639C80.7576 13.5639 81.1823 13.451 81.5478 13.2252C81.9242 12.9994 82.2145 12.6876 82.4188 12.2898C82.6231 11.892 82.7252 11.435 82.7252 10.9189C82.7252 10.3921 82.6177 9.92971 82.4026 9.53188C82.1983 9.1233 81.9134 8.80611 81.5478 8.58032C81.1823 8.35452 80.7576 8.24163 80.2737 8.24163C79.7899 8.24163 79.3652 8.3599 78.9996 8.59645C78.634 8.82224 78.3437 9.13943 78.1287 9.54801C77.9244 9.94584 77.8222 10.4028 77.8222 10.9189C77.8222 11.4243 77.9244 11.8812 78.1287 12.2898C78.3437 12.6876 78.634 12.9994 78.9996 13.2252C79.3652 13.451 79.7899 13.5639 80.2737 13.5639ZM86.9548 15.1768V6.67719H88.8902L88.9225 8.41904L88.5515 8.61258C88.659 8.2255 88.8687 7.87605 89.1805 7.56424C89.4923 7.24168 89.8633 6.98363 90.2934 6.79009C90.7234 6.59655 91.1643 6.49978 91.6159 6.49978C92.261 6.49978 92.7986 6.6288 93.2287 6.88686C93.6695 7.14491 93.9975 7.53199 94.2125 8.04809C94.4383 8.56419 94.5512 9.20932 94.5512 9.98347V15.1768H92.5674V10.1286C92.5674 9.69854 92.5083 9.34372 92.39 9.06417C92.2718 8.77386 92.089 8.56419 91.8417 8.43517C91.5944 8.29539 91.2933 8.23087 90.9385 8.24163C90.6482 8.24163 90.3794 8.29001 90.1321 8.38678C89.8955 8.4728 89.6859 8.60182 89.5031 8.77386C89.331 8.93514 89.1913 9.1233 89.0837 9.33834C88.987 9.55339 88.9386 9.78993 88.9386 10.048V15.1768H87.9548C87.7612 15.1768 87.5784 15.1768 87.4064 15.1768C87.2451 15.1768 87.0946 15.1768 86.9548 15.1768ZM99.6215 15.338C98.8689 15.338 98.1915 15.2144 97.5894 14.9671C96.998 14.709 96.5141 14.3435 96.1378 13.8704L97.4281 12.7575C97.7506 13.1231 98.1108 13.3865 98.5087 13.5478C98.9065 13.7091 99.3258 13.7897 99.7667 13.7897C99.9495 13.7897 100.111 13.7682 100.251 13.7252C100.401 13.6822 100.53 13.6177 100.638 13.5317C100.745 13.4457 100.826 13.3489 100.88 13.2414C100.944 13.1231 100.976 12.9941 100.976 12.8543C100.976 12.5962 100.88 12.392 100.686 12.2414C100.578 12.1662 100.406 12.0855 100.17 11.9995C99.9441 11.9135 99.6484 11.8275 99.2828 11.7414C98.7022 11.5909 98.2184 11.4189 97.8313 11.2253C97.4442 11.0211 97.1431 10.7953 96.9281 10.548C96.7453 10.3437 96.6055 10.1125 96.5088 9.85445C96.4228 9.5964 96.3797 9.31684 96.3797 9.01578C96.3797 8.63946 96.4604 8.30076 96.6217 7.9997C96.7937 7.68789 97.0249 7.41909 97.3152 7.19329C97.6055 6.9675 97.9442 6.79546 98.3313 6.67719C98.7183 6.55892 99.1215 6.49978 99.5409 6.49978C99.971 6.49978 100.385 6.55354 100.783 6.66106C101.191 6.76858 101.568 6.92449 101.912 7.12878C102.267 7.32232 102.568 7.55887 102.815 7.83842L101.718 9.04804C101.514 8.8545 101.288 8.68246 101.041 8.53193C100.804 8.3814 100.562 8.26313 100.315 8.17711C100.068 8.08034 99.8366 8.03196 99.6215 8.03196C99.4172 8.03196 99.2344 8.05346 99.0732 8.09647C98.9119 8.12873 98.7775 8.18249 98.6699 8.25775C98.5624 8.33302 98.4764 8.42979 98.4119 8.54806C98.3581 8.65558 98.3313 8.78461 98.3313 8.93514C98.342 9.06417 98.3743 9.18781 98.428 9.30609C98.4925 9.41361 98.5786 9.505 98.6861 9.58027C98.8043 9.65553 98.9818 9.74155 99.2183 9.83832C99.4549 9.93509 99.7613 10.0265 100.138 10.1125C100.664 10.2523 101.105 10.4082 101.46 10.5802C101.815 10.7523 102.095 10.9512 102.299 11.177C102.503 11.3705 102.648 11.5963 102.734 11.8543C102.82 12.1124 102.863 12.3973 102.863 12.7091C102.863 13.2145 102.718 13.6661 102.428 14.0639C102.148 14.4617 101.761 14.7736 101.267 14.9993C100.783 15.2251 100.234 15.338 99.6215 15.338Z" fill="white"/>
<path d="M164 9.4209L408 9.42092" stroke="white" stroke-width="1.61282" stroke-dasharray="3.23 3.23"/>
<circle cx="430.463" cy="9.67693" r="9.19308" stroke="white" stroke-width="0.967693"/>
<path d="M427.793 12.8702C427.167 12.8702 426.657 12.7444 426.264 12.4928C425.877 12.2412 425.593 11.8799 425.412 11.409C425.231 10.938 425.141 10.38 425.141 9.73488C425.141 9.03814 425.225 8.44463 425.393 7.95433C425.56 7.46403 425.838 7.08986 426.225 6.8318C426.612 6.57375 427.135 6.44473 427.793 6.44473C428.444 6.44473 428.963 6.57375 429.351 6.8318C429.738 7.08986 430.015 7.46403 430.183 7.95433C430.35 8.44463 430.434 9.03814 430.434 9.73488C430.434 10.38 430.344 10.938 430.163 11.409C429.989 11.8799 429.709 12.2412 429.322 12.4928C428.934 12.7444 428.425 12.8702 427.793 12.8702ZM427.793 12.1928C428.251 12.1928 428.612 12.0928 428.876 11.8928C429.147 11.6864 429.341 11.3993 429.457 11.0316C429.58 10.6574 429.641 10.2252 429.641 9.73488C429.641 8.88976 429.505 8.24464 429.234 7.7995C428.97 7.34791 428.489 7.12211 427.793 7.12211C427.328 7.12211 426.96 7.22211 426.689 7.4221C426.418 7.62209 426.225 7.91885 426.109 8.31237C425.993 8.69945 425.935 9.17362 425.935 9.73488C425.935 10.2252 425.993 10.6574 426.109 11.0316C426.231 11.3993 426.428 11.6864 426.699 11.8928C426.976 12.0928 427.341 12.1928 427.793 12.1928ZM433.081 12.8702C432.797 12.8702 432.494 12.8444 432.171 12.7928C431.848 12.7412 431.594 12.6799 431.407 12.6089V11.9122C431.652 12.009 431.906 12.0799 432.171 12.1251C432.435 12.1702 432.706 12.1928 432.984 12.1928C433.539 12.1928 433.948 12.109 434.213 11.9412C434.484 11.7735 434.619 11.48 434.619 11.0606C434.619 10.6606 434.493 10.3703 434.242 10.1897C433.99 10.0091 433.639 9.91874 433.187 9.91874H432.287L432.365 9.31877H433.11C433.574 9.31877 433.919 9.21878 434.145 9.01879C434.371 8.81235 434.484 8.52527 434.484 8.15754C434.484 7.80272 434.364 7.54145 434.126 7.37371C433.893 7.20598 433.519 7.12211 433.003 7.12211C432.745 7.12211 432.484 7.14792 432.219 7.19953C431.961 7.25114 431.729 7.31888 431.523 7.40274V6.71568C431.703 6.64472 431.939 6.58343 432.229 6.53182C432.526 6.47376 432.819 6.44473 433.11 6.44473C433.852 6.44473 434.397 6.60601 434.745 6.92857C435.1 7.24469 435.277 7.65112 435.277 8.14787C435.277 8.46398 435.193 8.76074 435.026 9.03814C434.864 9.3091 434.603 9.49941 434.242 9.60908C434.655 9.6994 434.951 9.88004 435.132 10.151C435.319 10.4155 435.413 10.7187 435.413 11.0606C435.413 11.667 435.203 12.1219 434.784 12.4251C434.364 12.7218 433.797 12.8702 433.081 12.8702Z" fill="white"/>
</svg>
