<svg width="441" height="20" viewBox="0 0 441 20" fill="none" xmlns="http://www.w3.org/2000/svg">
<path d="M126.516 15.177V3.88725H131.048C131.865 3.88725 132.602 4.02165 133.258 4.29046C133.924 4.55926 134.494 4.94634 134.967 5.45169C135.451 5.95704 135.817 6.55378 136.064 7.24192C136.322 7.93006 136.451 8.69346 136.451 9.53213C136.451 10.3708 136.322 11.1396 136.064 11.8385C135.817 12.5266 135.456 13.1233 134.983 13.6287C134.51 14.1233 133.94 14.505 133.274 14.7738C132.607 15.0426 131.865 15.177 131.048 15.177H126.516ZM128.613 13.5481L128.451 13.2416H130.967C131.494 13.2416 131.962 13.1556 132.371 12.9836C132.79 12.8115 133.145 12.5642 133.435 12.2417C133.725 11.9191 133.946 11.532 134.096 11.0804C134.247 10.6181 134.322 10.102 134.322 9.53213C134.322 8.96226 134.247 8.45154 134.096 7.99995C133.946 7.53761 133.72 7.14515 133.419 6.82259C133.129 6.50002 132.779 6.25272 132.371 6.08069C131.962 5.90866 131.494 5.82264 130.967 5.82264H128.403L128.613 5.54846V13.5481ZM138.593 15.177V6.67743H140.577V15.177H138.593ZM139.561 4.87107C139.163 4.87107 138.851 4.7743 138.626 4.58077C138.411 4.37648 138.303 4.09154 138.303 3.72597C138.303 3.3819 138.416 3.10235 138.642 2.8873C138.868 2.67226 139.174 2.56474 139.561 2.56474C139.97 2.56474 140.282 2.66688 140.497 2.87118C140.722 3.06471 140.835 3.34965 140.835 3.72597C140.835 4.05929 140.722 4.33347 140.497 4.54851C140.271 4.76355 139.959 4.87107 139.561 4.87107ZM143.06 15.177V6.67743H145.012L145.044 8.38702L144.722 8.51605C144.818 8.23649 144.964 7.97844 145.157 7.7419C145.351 7.4946 145.582 7.28493 145.851 7.1129C146.119 6.93011 146.404 6.79033 146.705 6.69356C147.006 6.58604 147.313 6.53228 147.625 6.53228C148.087 6.53228 148.496 6.60755 148.85 6.75808C149.216 6.89785 149.517 7.12365 149.754 7.43546C150.001 7.74727 150.184 8.1451 150.302 8.62895L149.996 8.56443L150.125 8.30638C150.243 8.04833 150.41 7.81716 150.625 7.61287C150.84 7.39783 151.082 7.20966 151.35 7.04838C151.619 6.87635 151.899 6.74732 152.189 6.66131C152.49 6.57529 152.786 6.53228 153.076 6.53228C153.721 6.53228 154.259 6.66131 154.689 6.91936C155.119 7.17741 155.442 7.56986 155.657 8.09672C155.872 8.62357 155.979 9.27408 155.979 10.0482V15.177H153.979V10.1773C153.979 9.74717 153.92 9.39235 153.802 9.11279C153.694 8.83324 153.522 8.62895 153.286 8.49992C153.06 8.36014 152.775 8.29026 152.431 8.29026C152.162 8.29026 151.904 8.33864 151.657 8.43541C151.42 8.52143 151.216 8.65045 151.044 8.82249C150.872 8.98377 150.737 9.17193 150.641 9.38697C150.544 9.60202 150.496 9.83856 150.496 10.0966V15.177H148.496V10.1611C148.496 9.75255 148.437 9.41385 148.318 9.14505C148.2 8.86549 148.028 8.65583 147.802 8.51605C147.576 8.36552 147.302 8.29026 146.98 8.29026C146.711 8.29026 146.458 8.33864 146.222 8.43541C145.985 8.52143 145.781 8.64508 145.609 8.80636C145.437 8.96764 145.302 9.1558 145.205 9.37085C145.109 9.58589 145.06 9.82244 145.06 10.0805V15.177H143.06ZM162.165 15.3383C161.273 15.3383 160.482 15.1501 159.794 14.7738C159.117 14.3975 158.585 13.8867 158.198 13.2416C157.821 12.5857 157.633 11.8385 157.633 10.9998C157.633 10.3332 157.741 9.72567 157.956 9.17731C158.171 8.62895 158.466 8.15585 158.843 7.75802C159.23 7.34944 159.687 7.03763 160.214 6.82259C160.751 6.59679 161.337 6.4839 161.972 6.4839C162.531 6.4839 163.052 6.59142 163.536 6.80646C164.02 7.0215 164.439 7.31719 164.794 7.69351C165.149 8.05908 165.418 8.49992 165.6 9.01602C165.794 9.52138 165.885 10.0751 165.875 10.6772L165.858 11.3707H158.972L158.601 10.016H164.197L163.939 10.2902V9.93533C163.907 9.60202 163.799 9.31171 163.617 9.06441C163.434 8.80636 163.197 8.60744 162.907 8.46767C162.627 8.31714 162.316 8.24187 161.972 8.24187C161.445 8.24187 160.998 8.34402 160.633 8.54831C160.278 8.7526 160.009 9.04828 159.826 9.43536C159.644 9.81168 159.552 10.2848 159.552 10.8546C159.552 11.403 159.665 11.8815 159.891 12.2901C160.128 12.6986 160.455 13.0158 160.875 13.2416C161.305 13.4567 161.805 13.5642 162.375 13.5642C162.773 13.5642 163.138 13.4997 163.471 13.3706C163.805 13.2416 164.165 13.0104 164.552 12.6771L165.536 14.048C165.246 14.3168 164.912 14.548 164.536 14.7415C164.17 14.9243 163.783 15.0695 163.375 15.177C162.966 15.2845 162.563 15.3383 162.165 15.3383ZM167.632 15.177V6.67743H169.567L169.599 8.41928L169.228 8.61282C169.336 8.22574 169.545 7.8763 169.857 7.56449C170.169 7.24192 170.54 6.98387 170.97 6.79033C171.4 6.59679 171.841 6.50002 172.293 6.50002C172.938 6.50002 173.475 6.62905 173.905 6.8871C174.346 7.14515 174.674 7.53223 174.889 8.04833C175.115 8.56443 175.228 9.20956 175.228 9.98372V15.177H173.244V10.1289C173.244 9.69879 173.185 9.34397 173.067 9.06441C172.948 8.7741 172.766 8.56443 172.518 8.43541C172.271 8.29563 171.97 8.23112 171.615 8.24187C171.325 8.24187 171.056 8.29026 170.809 8.38702C170.572 8.47304 170.363 8.60207 170.18 8.7741C170.008 8.93538 169.868 9.12355 169.76 9.33859C169.664 9.55363 169.615 9.79018 169.615 10.0482V15.177H168.631C168.438 15.177 168.255 15.177 168.083 15.177C167.922 15.177 167.771 15.177 167.632 15.177ZM180.298 15.3383C179.546 15.3383 178.868 15.2146 178.266 14.9673C177.675 14.7093 177.191 14.3437 176.815 13.8706L178.105 12.7578C178.427 13.1233 178.788 13.3868 179.185 13.5481C179.583 13.7093 180.003 13.79 180.443 13.79C180.626 13.79 180.787 13.7685 180.927 13.7255C181.078 13.6825 181.207 13.6179 181.314 13.5319C181.422 13.4459 181.502 13.3491 181.556 13.2416C181.621 13.1233 181.653 12.9943 181.653 12.8545C181.653 12.5965 181.556 12.3922 181.363 12.2417C181.255 12.1664 181.083 12.0858 180.847 11.9997C180.621 11.9137 180.325 11.8277 179.96 11.7417C179.379 11.5912 178.895 11.4191 178.508 11.2256C178.121 11.0213 177.82 10.7955 177.605 10.5482C177.422 10.3439 177.282 10.1127 177.185 9.85469C177.099 9.59664 177.056 9.31708 177.056 9.01602C177.056 8.6397 177.137 8.30101 177.298 7.99995C177.47 7.68814 177.702 7.41933 177.992 7.19354C178.282 6.96774 178.621 6.79571 179.008 6.67743C179.395 6.55916 179.798 6.50002 180.218 6.50002C180.648 6.50002 181.062 6.55378 181.459 6.66131C181.868 6.76883 182.244 6.92473 182.588 7.12902C182.943 7.32256 183.244 7.55911 183.492 7.83867L182.395 9.04828C182.191 8.85474 181.965 8.68271 181.718 8.53218C181.481 8.38165 181.239 8.26337 180.992 8.17736C180.744 8.08059 180.513 8.0322 180.298 8.0322C180.094 8.0322 179.911 8.05371 179.75 8.09672C179.589 8.12897 179.454 8.18273 179.347 8.258C179.239 8.33326 179.153 8.43003 179.089 8.54831C179.035 8.65583 179.008 8.78485 179.008 8.93538C179.019 9.06441 179.051 9.18806 179.105 9.30633C179.169 9.41385 179.255 9.50525 179.363 9.58051C179.481 9.65578 179.658 9.74179 179.895 9.83856C180.132 9.93533 180.438 10.0267 180.814 10.1127C181.341 10.2525 181.782 10.4084 182.137 10.5805C182.492 10.7525 182.771 10.9514 182.976 11.1772C183.18 11.3707 183.325 11.5965 183.411 11.8546C183.497 12.1126 183.54 12.3976 183.54 12.7094C183.54 13.2147 183.395 13.6663 183.105 14.0642C182.825 14.462 182.438 14.7738 181.943 14.9996C181.459 15.2254 180.911 15.3383 180.298 15.3383ZM185.513 15.177V6.67743H187.497V15.177H185.513ZM186.481 4.87107C186.083 4.87107 185.771 4.7743 185.546 4.58077C185.331 4.37648 185.223 4.09154 185.223 3.72597C185.223 3.3819 185.336 3.10235 185.562 2.8873C185.787 2.67226 186.094 2.56474 186.481 2.56474C186.89 2.56474 187.201 2.66688 187.416 2.87118C187.642 3.06471 187.755 3.34965 187.755 3.72597C187.755 4.05929 187.642 4.33347 187.416 4.54851C187.191 4.76355 186.879 4.87107 186.481 4.87107ZM193.899 15.3383C193.05 15.3383 192.292 15.1501 191.625 14.7738C190.959 14.3867 190.432 13.8599 190.045 13.1932C189.658 12.5266 189.464 11.7686 189.464 10.9192C189.464 10.0697 189.658 9.31171 190.045 8.64508C190.432 7.97844 190.959 7.45696 191.625 7.08064C192.292 6.69356 193.05 6.50002 193.899 6.50002C194.738 6.50002 195.491 6.69356 196.157 7.08064C196.824 7.45696 197.346 7.97844 197.722 8.64508C198.109 9.31171 198.302 10.0697 198.302 10.9192C198.302 11.7686 198.109 12.5266 197.722 13.1932C197.346 13.8599 196.824 14.3867 196.157 14.7738C195.491 15.1501 194.738 15.3383 193.899 15.3383ZM193.899 13.5803C194.362 13.5803 194.77 13.462 195.125 13.2255C195.491 12.9889 195.776 12.6718 195.98 12.2739C196.195 11.8761 196.297 11.4245 196.286 10.9192C196.297 10.4031 196.195 9.94609 195.98 9.54826C195.776 9.15043 195.491 8.83861 195.125 8.61282C194.77 8.37627 194.362 8.258 193.899 8.258C193.437 8.258 193.018 8.37627 192.641 8.61282C192.276 8.83861 191.991 9.1558 191.787 9.56438C191.582 9.96221 191.48 10.4138 191.48 10.9192C191.48 11.4245 191.582 11.8761 191.787 12.2739C191.991 12.6718 192.276 12.9889 192.641 13.2255C193.018 13.462 193.437 13.5803 193.899 13.5803ZM200.077 15.177V6.67743H202.012L202.045 8.41928L201.674 8.61282C201.781 8.22574 201.991 7.8763 202.303 7.56449C202.614 7.24192 202.985 6.98387 203.415 6.79033C203.846 6.59679 204.286 6.50002 204.738 6.50002C205.383 6.50002 205.921 6.62905 206.351 6.8871C206.792 7.14515 207.12 7.53223 207.335 8.04833C207.56 8.56443 207.673 9.20956 207.673 9.98372V15.177H205.69V10.1289C205.69 9.69879 205.63 9.34397 205.512 9.06441C205.394 8.7741 205.211 8.56443 204.964 8.43541C204.716 8.29563 204.415 8.23112 204.061 8.24187C203.77 8.24187 203.502 8.29026 203.254 8.38702C203.018 8.47304 202.808 8.60207 202.625 8.7741C202.453 8.93538 202.313 9.12355 202.206 9.33859C202.109 9.55363 202.061 9.79018 202.061 10.0482V15.177H201.077C200.883 15.177 200.701 15.177 200.529 15.177C200.367 15.177 200.217 15.177 200.077 15.177ZM215.001 15.177V3.88725H219.533C220.35 3.88725 221.086 4.02165 221.742 4.29046C222.409 4.55926 222.979 4.94634 223.452 5.45169C223.936 5.95704 224.301 6.55378 224.549 7.24192C224.807 7.93006 224.936 8.69346 224.936 9.53213C224.936 10.3708 224.807 11.1396 224.549 11.8385C224.301 12.5266 223.941 13.1233 223.468 13.6287C222.995 14.1233 222.425 14.505 221.758 14.7738C221.092 15.0426 220.35 15.177 219.533 15.177H215.001ZM217.097 13.5481L216.936 13.2416H219.452C219.979 13.2416 220.447 13.1556 220.855 12.9836C221.275 12.8115 221.629 12.5642 221.92 12.2417C222.21 11.9191 222.43 11.532 222.581 11.0804C222.732 10.6181 222.807 10.102 222.807 9.53213C222.807 8.96226 222.732 8.45154 222.581 7.99995C222.43 7.53761 222.205 7.14515 221.904 6.82259C221.613 6.50002 221.264 6.25272 220.855 6.08069C220.447 5.90866 219.979 5.82264 219.452 5.82264H216.888L217.097 5.54846V13.5481ZM230.836 15.3383C229.944 15.3383 229.153 15.1501 228.465 14.7738C227.788 14.3975 227.256 13.8867 226.868 13.2416C226.492 12.5857 226.304 11.8385 226.304 10.9998C226.304 10.3332 226.411 9.72567 226.627 9.17731C226.842 8.62895 227.137 8.15585 227.514 7.75802C227.901 7.34944 228.358 7.03763 228.884 6.82259C229.422 6.59679 230.008 6.4839 230.642 6.4839C231.202 6.4839 231.723 6.59142 232.207 6.80646C232.691 7.0215 233.11 7.31719 233.465 7.69351C233.82 8.05908 234.088 8.49992 234.271 9.01602C234.465 9.52138 234.556 10.0751 234.545 10.6772L234.529 11.3707H227.643L227.272 10.016H232.868L232.61 10.2902V9.93533C232.578 9.60202 232.47 9.31171 232.288 9.06441C232.105 8.80636 231.868 8.60744 231.578 8.46767C231.298 8.31714 230.987 8.24187 230.642 8.24187C230.116 8.24187 229.669 8.34402 229.304 8.54831C228.949 8.7526 228.68 9.04828 228.497 9.43536C228.315 9.81168 228.223 10.2848 228.223 10.8546C228.223 11.403 228.336 11.8815 228.562 12.2901C228.798 12.6986 229.126 13.0158 229.546 13.2416C229.976 13.4567 230.476 13.5642 231.046 13.5642C231.443 13.5642 231.809 13.4997 232.142 13.3706C232.476 13.2416 232.836 13.0104 233.223 12.6771L234.207 14.048C233.916 14.3168 233.583 14.548 233.207 14.7415C232.841 14.9243 232.454 15.0695 232.046 15.177C231.637 15.2845 231.234 15.3383 230.836 15.3383ZM237.222 15.177V4.51625H239.206V15.177H237.222ZM235.544 8.51605V6.67743H241.06V8.51605H235.544ZM245.702 15.3383C245.003 15.3383 244.369 15.1447 243.799 14.7577C243.229 14.3706 242.772 13.8437 242.428 13.1771C242.084 12.5105 241.912 11.7524 241.912 10.903C241.912 10.0536 242.084 9.29558 242.428 8.62895C242.772 7.96231 243.24 7.44084 243.831 7.06451C244.422 6.68819 245.089 6.50002 245.831 6.50002C246.261 6.50002 246.653 6.56454 247.008 6.69356C247.363 6.81184 247.675 6.98387 247.944 7.20966C248.212 7.43546 248.433 7.69351 248.605 7.98382C248.788 8.27413 248.911 8.58594 248.976 8.91926L248.54 8.80636V6.67743H250.54V15.177H248.524V13.1448L248.992 13.0642C248.917 13.3545 248.777 13.6394 248.573 13.919C248.379 14.1878 248.132 14.4297 247.831 14.6448C247.54 14.8491 247.212 15.0157 246.847 15.1447C246.492 15.2738 246.11 15.3383 245.702 15.3383ZM246.25 13.5803C246.712 13.5803 247.121 13.4674 247.476 13.2416C247.831 13.0158 248.105 12.704 248.298 12.3062C248.503 11.8976 248.605 11.4299 248.605 10.903C248.605 10.3869 248.503 9.92996 248.298 9.53213C248.105 9.1343 247.831 8.82249 247.476 8.59669C247.121 8.3709 246.712 8.258 246.25 8.258C245.788 8.258 245.379 8.3709 245.024 8.59669C244.68 8.82249 244.412 9.1343 244.218 9.53213C244.024 9.92996 243.928 10.3869 243.928 10.903C243.928 11.4299 244.024 11.8976 244.218 12.3062C244.412 12.704 244.68 13.0158 245.024 13.2416C245.379 13.4674 245.788 13.5803 246.25 13.5803ZM253.066 15.177V6.67743H255.05V15.177H253.066ZM254.034 4.87107C253.636 4.87107 253.324 4.7743 253.098 4.58077C252.883 4.37648 252.776 4.09154 252.776 3.72597C252.776 3.3819 252.889 3.10235 253.114 2.8873C253.34 2.67226 253.647 2.56474 254.034 2.56474C254.442 2.56474 254.754 2.66688 254.969 2.87118C255.195 3.06471 255.308 3.34965 255.308 3.72597C255.308 4.05929 255.195 4.33347 254.969 4.54851C254.743 4.76355 254.431 4.87107 254.034 4.87107ZM257.581 15.177V3.24212H259.581V15.177H257.581ZM264.751 15.3383C263.998 15.3383 263.321 15.2146 262.719 14.9673C262.127 14.7093 261.643 14.3437 261.267 13.8706L262.557 12.7578C262.88 13.1233 263.24 13.3868 263.638 13.5481C264.036 13.7093 264.455 13.79 264.896 13.79C265.079 13.79 265.24 13.7685 265.38 13.7255C265.53 13.6825 265.659 13.6179 265.767 13.5319C265.874 13.4459 265.955 13.3491 266.009 13.2416C266.073 13.1233 266.106 12.9943 266.106 12.8545C266.106 12.5965 266.009 12.3922 265.815 12.2417C265.708 12.1664 265.536 12.0858 265.299 11.9997C265.073 11.9137 264.778 11.8277 264.412 11.7417C263.832 11.5912 263.348 11.4191 262.961 11.2256C262.574 11.0213 262.272 10.7955 262.057 10.5482C261.875 10.3439 261.735 10.1127 261.638 9.85469C261.552 9.59664 261.509 9.31708 261.509 9.01602C261.509 8.6397 261.59 8.30101 261.751 7.99995C261.923 7.68814 262.154 7.41933 262.444 7.19354C262.735 6.96774 263.074 6.79571 263.461 6.67743C263.848 6.55916 264.251 6.50002 264.67 6.50002C265.1 6.50002 265.514 6.55378 265.912 6.66131C266.321 6.76883 266.697 6.92473 267.041 7.12902C267.396 7.32256 267.697 7.55911 267.944 7.83867L266.848 9.04828C266.643 8.85474 266.417 8.68271 266.17 8.53218C265.934 8.38165 265.692 8.26337 265.444 8.17736C265.197 8.08059 264.966 8.0322 264.751 8.0322C264.547 8.0322 264.364 8.05371 264.202 8.09672C264.041 8.12897 263.907 8.18273 263.799 8.258C263.692 8.33326 263.606 8.43003 263.541 8.54831C263.487 8.65583 263.461 8.78485 263.461 8.93538C263.471 9.06441 263.504 9.18806 263.557 9.30633C263.622 9.41385 263.708 9.50525 263.815 9.58051C263.934 9.65578 264.111 9.74179 264.348 9.83856C264.584 9.93533 264.891 10.0267 265.267 10.1127C265.794 10.2525 266.235 10.4084 266.589 10.5805C266.944 10.7525 267.224 10.9514 267.428 11.1772C267.632 11.3707 267.778 11.5965 267.864 11.8546C267.95 12.1126 267.993 12.3976 267.993 12.7094C267.993 13.2147 267.847 13.6663 267.557 14.0642C267.278 14.462 266.891 14.7738 266.396 14.9996C265.912 15.2254 265.364 15.3383 264.751 15.3383Z" fill="white"/>
<path d="M281.242 9.62842L408.795 9.62843" stroke="white" stroke-width="1.61282" stroke-dasharray="3.23 3.23"/>
<circle cx="430.952" cy="9.67693" r="9.19308" stroke="white" stroke-width="0.967693"/>
<path d="M428.282 12.8705C427.656 12.8705 427.146 12.7447 426.753 12.4931C426.366 12.2415 426.082 11.8802 425.901 11.4092C425.721 10.9383 425.63 10.3803 425.63 9.73513C425.63 9.03839 425.714 8.44487 425.882 7.95457C426.05 7.46427 426.327 7.0901 426.714 6.83205C427.101 6.574 427.624 6.44497 428.282 6.44497C428.933 6.44497 429.453 6.574 429.84 6.83205C430.227 7.0901 430.504 7.46427 430.672 7.95457C430.84 8.44487 430.924 9.03839 430.924 9.73513C430.924 10.3803 430.833 10.9383 430.653 11.4092C430.478 11.8802 430.198 12.2415 429.811 12.4931C429.424 12.7447 428.914 12.8705 428.282 12.8705ZM428.282 12.1931C428.74 12.1931 429.101 12.0931 429.366 11.8931C429.637 11.6866 429.83 11.3996 429.946 11.0318C430.069 10.6577 430.13 10.2254 430.13 9.73513C430.13 8.89001 429.995 8.24488 429.724 7.79974C429.459 7.34815 428.979 7.12236 428.282 7.12236C427.817 7.12236 427.45 7.22235 427.179 7.42234C426.908 7.62233 426.714 7.91909 426.598 8.31262C426.482 8.6997 426.424 9.17386 426.424 9.73513C426.424 10.2254 426.482 10.6577 426.598 11.0318C426.721 11.3996 426.917 11.6866 427.188 11.8931C427.466 12.0931 427.83 12.1931 428.282 12.1931ZM434.905 12.7737V11.3415H431.702V10.7415L434.992 6.54174H435.699V10.6931H436.357V11.3415H435.699V12.7737H434.905ZM432.496 10.7125H435.012V7.49008L432.496 10.7125Z" fill="white"/>
</svg>
