<svg width="441" height="20" viewBox="0 0 441 20" fill="none" xmlns="http://www.w3.org/2000/svg">
<path d="M10.5161 15.1768V3.88701H12.6127V15.1768H10.5161ZM11.4837 10.548V8.64483H17.306V10.548H11.4837ZM11.4837 5.82239V3.88701H17.9995V5.82239H11.4837ZM23.721 15.338C22.8286 15.338 22.0383 15.1499 21.3502 14.7736C20.6728 14.3972 20.1406 13.8865 19.7535 13.2414C19.3772 12.5855 19.189 11.8382 19.189 10.9996C19.189 10.3329 19.2965 9.72542 19.5116 9.17706C19.7266 8.6287 20.0223 8.15561 20.3986 7.75778C20.7857 7.3492 21.2427 7.03739 21.7695 6.82234C22.3071 6.59655 22.8931 6.48365 23.5275 6.48365C24.0866 6.48365 24.6081 6.59117 25.0919 6.80621C25.5758 7.02126 25.9951 7.31694 26.3499 7.69327C26.7047 8.05884 26.9735 8.49968 27.1563 9.01578C27.3499 9.52113 27.4413 10.0749 27.4305 10.677L27.4144 11.3705H20.5276L20.1567 10.0157H25.7532L25.4951 10.2899V9.93509C25.4629 9.60177 25.3554 9.31146 25.1726 9.06417C24.9898 8.80611 24.7532 8.6072 24.4629 8.46742C24.1834 8.31689 23.8716 8.24163 23.5275 8.24163C23.0006 8.24163 22.5544 8.34377 22.1888 8.54806C21.834 8.75235 21.5652 9.04804 21.3824 9.43511C21.1996 9.81144 21.1083 10.2845 21.1083 10.8544C21.1083 11.4028 21.2212 11.8812 21.4469 12.2898C21.6835 12.6984 22.0114 13.0156 22.4308 13.2414C22.8609 13.4564 23.3608 13.5639 23.9307 13.5639C24.3285 13.5639 24.6941 13.4994 25.0274 13.3704C25.3607 13.2414 25.7209 13.0102 26.108 12.6769L27.0918 14.0478C26.8015 14.3166 26.4682 14.5478 26.0919 14.7413C25.7263 14.9241 25.3392 15.0692 24.9306 15.1768C24.5221 15.2843 24.1189 15.338 23.721 15.338ZM32.397 15.338C31.6981 15.338 31.0637 15.1445 30.4939 14.7574C29.924 14.3703 29.467 13.8435 29.123 13.1769C28.7789 12.5102 28.6069 11.7522 28.6069 10.9028C28.6069 10.0534 28.7789 9.29534 29.123 8.6287C29.467 7.96207 29.9348 7.44059 30.5261 7.06427C31.1175 6.68794 31.7841 6.49978 32.526 6.49978C32.9561 6.49978 33.3486 6.56429 33.7034 6.69332C34.0582 6.81159 34.37 6.98363 34.6388 7.20942C34.9076 7.43522 35.128 7.69327 35.3001 7.98358C35.4829 8.27388 35.6065 8.58569 35.671 8.91901L35.2356 8.80611V6.67719H37.2355V15.1768H35.2194V13.1446L35.6872 13.064C35.6119 13.3543 35.4721 13.6392 35.2678 13.9188C35.0743 14.1876 34.827 14.4295 34.5259 14.6445C34.2356 14.8488 33.9077 15.0155 33.5421 15.1445C33.1873 15.2735 32.8056 15.338 32.397 15.338ZM32.9454 13.5801C33.4077 13.5801 33.8163 13.4672 34.1711 13.2414C34.5259 13.0156 34.8001 12.7038 34.9936 12.3059C35.1979 11.8974 35.3001 11.4296 35.3001 10.9028C35.3001 10.3867 35.1979 9.92971 34.9936 9.53188C34.8001 9.13405 34.5259 8.82224 34.1711 8.59645C33.8163 8.37065 33.4077 8.25775 32.9454 8.25775C32.483 8.25775 32.0744 8.37065 31.7196 8.59645C31.3755 8.82224 31.1067 9.13405 30.9132 9.53188C30.7197 9.92971 30.6229 10.3867 30.6229 10.9028C30.6229 11.4296 30.7197 11.8974 30.9132 12.3059C31.1067 12.7038 31.3755 13.0156 31.7196 13.2414C32.0744 13.4672 32.483 13.5801 32.9454 13.5801ZM40.4547 15.1768V4.51601H42.4384V15.1768H40.4547ZM38.7773 8.51581V6.67719H44.2932V8.51581H38.7773ZM48.7554 15.338C48.1425 15.338 47.6103 15.2036 47.1587 14.9348C46.7071 14.6553 46.3631 14.2628 46.1265 13.7575C45.89 13.2414 45.7717 12.6285 45.7717 11.9189V6.67719H47.7555V11.4995C47.7555 11.9511 47.8254 12.3382 47.9651 12.6608C48.1049 12.9726 48.3092 13.2145 48.578 13.3865C48.8468 13.5586 49.1694 13.6446 49.5457 13.6446C49.8253 13.6446 50.0779 13.6016 50.3037 13.5156C50.5403 13.4188 50.7446 13.2898 50.9166 13.1285C51.0886 12.9564 51.223 12.7575 51.3198 12.5317C51.4166 12.2952 51.465 12.0425 51.465 11.7737V6.67719H53.4487V15.1768H51.5133L51.4811 13.4027L51.8359 13.2091C51.7069 13.6177 51.4865 13.9833 51.1746 14.3058C50.8736 14.6176 50.5134 14.8703 50.0941 15.0639C49.6747 15.2466 49.2285 15.338 48.7554 15.338ZM55.7738 15.1768V6.67719H57.7253L57.7576 9.38673L57.4834 8.77386C57.6017 8.34377 57.806 7.95669 58.0963 7.61263C58.3866 7.26856 58.7199 6.99975 59.0962 6.80621C59.4833 6.60192 59.8865 6.49978 60.3059 6.49978C60.4886 6.49978 60.6607 6.51591 60.822 6.54816C60.994 6.58042 61.1338 6.61805 61.2413 6.66106L60.7091 8.83837C60.5908 8.77386 60.4456 8.7201 60.2736 8.67709C60.1016 8.63408 59.9295 8.61258 59.7575 8.61258C59.4887 8.61258 59.2306 8.66634 58.9833 8.77386C58.7468 8.87063 58.5371 9.0104 58.3543 9.19319C58.1716 9.37598 58.0264 9.59102 57.9189 9.83832C57.8221 10.0749 57.7737 10.3437 57.7737 10.6447V15.1768H55.7738ZM66.1836 15.338C65.2912 15.338 64.5009 15.1499 63.8127 14.7736C63.1354 14.3972 62.6031 13.8865 62.216 13.2414C61.8397 12.5855 61.6516 11.8382 61.6516 10.9996C61.6516 10.3329 61.7591 9.72542 61.9741 9.17706C62.1892 8.6287 62.4848 8.15561 62.8612 7.75778C63.2482 7.3492 63.7052 7.03739 64.2321 6.82234C64.7697 6.59655 65.3557 6.48365 65.99 6.48365C66.5492 6.48365 67.0706 6.59117 67.5545 6.80621C68.0383 7.02126 68.4577 7.31694 68.8125 7.69327C69.1673 8.05884 69.4361 8.49968 69.6189 9.01578C69.8124 9.52113 69.9038 10.0749 69.8931 10.677L69.8769 11.3705H62.9902L62.6192 10.0157H68.2157L67.9577 10.2899V9.93509C67.9254 9.60177 67.8179 9.31146 67.6351 9.06417C67.4523 8.80611 67.2158 8.6072 66.9255 8.46742C66.6459 8.31689 66.3341 8.24163 65.99 8.24163C65.4632 8.24163 65.017 8.34377 64.6514 8.54806C64.2966 8.75235 64.0278 9.04804 63.845 9.43511C63.6622 9.81144 63.5708 10.2845 63.5708 10.8544C63.5708 11.4028 63.6837 11.8812 63.9095 12.2898C64.1461 12.6984 64.474 13.0156 64.8933 13.2414C65.3234 13.4564 65.8234 13.5639 66.3933 13.5639C66.7911 13.5639 67.1567 13.4994 67.49 13.3704C67.8233 13.2414 68.1835 13.0102 68.5706 12.6769L69.5544 14.0478C69.2641 14.3166 68.9308 14.5478 68.5544 14.7413C68.1889 14.9241 67.8018 15.0692 67.3932 15.1768C66.9846 15.2843 66.5814 15.338 66.1836 15.338ZM74.4886 15.338C73.736 15.338 73.0586 15.2144 72.4564 14.9671C71.8651 14.709 71.3812 14.3435 71.0049 13.8704L72.2952 12.7575C72.6177 13.1231 72.9779 13.3865 73.3758 13.5478C73.7736 13.7091 74.1929 13.7897 74.6338 13.7897C74.8165 13.7897 74.9778 13.7682 75.1176 13.7252C75.2681 13.6822 75.3972 13.6177 75.5047 13.5317C75.6122 13.4457 75.6928 13.3489 75.7466 13.2414C75.8111 13.1231 75.8434 12.9941 75.8434 12.8543C75.8434 12.5962 75.7466 12.392 75.5531 12.2414C75.4455 12.1662 75.2735 12.0855 75.037 11.9995C74.8112 11.9135 74.5155 11.8275 74.1499 11.7414C73.5693 11.5909 73.0854 11.4189 72.6984 11.2253C72.3113 11.0211 72.0102 10.7953 71.7952 10.548C71.6124 10.3437 71.4726 10.1125 71.3759 9.85445C71.2898 9.5964 71.2468 9.31684 71.2468 9.01578C71.2468 8.63946 71.3275 8.30076 71.4888 7.9997C71.6608 7.68789 71.892 7.41909 72.1823 7.19329C72.4726 6.9675 72.8113 6.79546 73.1983 6.67719C73.5854 6.55892 73.9886 6.49978 74.408 6.49978C74.838 6.49978 75.252 6.55354 75.6498 6.66106C76.0584 6.76858 76.4347 6.92449 76.7788 7.12878C77.1336 7.32232 77.4347 7.55887 77.682 7.83842L76.5853 9.04804C76.381 8.8545 76.1552 8.68246 75.9079 8.53193C75.6713 8.3814 75.4294 8.26313 75.1821 8.17711C74.9348 8.08034 74.7036 8.03196 74.4886 8.03196C74.2843 8.03196 74.1015 8.05346 73.9402 8.09647C73.779 8.12873 73.6446 8.18249 73.537 8.25775C73.4295 8.33302 73.3435 8.42979 73.279 8.54806C73.2252 8.65558 73.1983 8.78461 73.1983 8.93514C73.2091 9.06417 73.2414 9.18781 73.2951 9.30609C73.3596 9.41361 73.4456 9.505 73.5532 9.58027C73.6714 9.65553 73.8489 9.74155 74.0854 9.83832C74.3219 9.93509 74.6284 10.0265 75.0047 10.1125C75.5316 10.2523 75.9724 10.4082 76.3272 10.5802C76.682 10.7523 76.9616 10.9512 77.1659 11.177C77.3702 11.3705 77.5153 11.5963 77.6013 11.8543C77.6874 12.1124 77.7304 12.3973 77.7304 12.7091C77.7304 13.2145 77.5852 13.6661 77.2949 14.0639C77.0154 14.4617 76.6283 14.7736 76.1337 14.9993C75.6498 15.2251 75.1015 15.338 74.4886 15.338Z" fill="white"/>
<path d="M128 9.38477L408 9.38474" stroke="white" stroke-width="1.61282" stroke-dasharray="3.23 3.23"/>
<circle cx="430.463" cy="9.67693" r="9.19308" stroke="white" stroke-width="0.967693"/>
<path d="M427.793 12.8702C427.167 12.8702 426.657 12.7444 426.264 12.4928C425.877 12.2412 425.593 11.8799 425.412 11.409C425.231 10.938 425.141 10.38 425.141 9.73488C425.141 9.03814 425.225 8.44463 425.393 7.95433C425.56 7.46403 425.838 7.08986 426.225 6.8318C426.612 6.57375 427.135 6.44473 427.793 6.44473C428.444 6.44473 428.963 6.57375 429.351 6.8318C429.738 7.08986 430.015 7.46403 430.183 7.95433C430.35 8.44463 430.434 9.03814 430.434 9.73488C430.434 10.38 430.344 10.938 430.163 11.409C429.989 11.8799 429.709 12.2412 429.322 12.4928C428.934 12.7444 428.425 12.8702 427.793 12.8702ZM427.793 12.1928C428.251 12.1928 428.612 12.0928 428.876 11.8928C429.147 11.6864 429.341 11.3993 429.457 11.0316C429.58 10.6574 429.641 10.2252 429.641 9.73488C429.641 8.88976 429.505 8.24464 429.234 7.7995C428.97 7.34791 428.489 7.12211 427.793 7.12211C427.328 7.12211 426.96 7.22211 426.689 7.4221C426.418 7.62209 426.225 7.91885 426.109 8.31237C425.993 8.69945 425.935 9.17362 425.935 9.73488C425.935 10.2252 425.993 10.6574 426.109 11.0316C426.231 11.3993 426.428 11.6864 426.699 11.8928C426.976 12.0928 427.341 12.1928 427.793 12.1928ZM433.081 12.8702C432.797 12.8702 432.494 12.8444 432.171 12.7928C431.848 12.7412 431.594 12.6799 431.407 12.6089V11.9122C431.652 12.009 431.906 12.0799 432.171 12.1251C432.435 12.1702 432.706 12.1928 432.984 12.1928C433.539 12.1928 433.948 12.109 434.213 11.9412C434.484 11.7735 434.619 11.48 434.619 11.0606C434.619 10.6606 434.493 10.3703 434.242 10.1897C433.99 10.0091 433.639 9.91874 433.187 9.91874H432.287L432.365 9.31877H433.11C433.574 9.31877 433.919 9.21878 434.145 9.01879C434.371 8.81235 434.484 8.52527 434.484 8.15754C434.484 7.80272 434.364 7.54145 434.126 7.37371C433.893 7.20598 433.519 7.12211 433.003 7.12211C432.745 7.12211 432.484 7.14792 432.219 7.19953C431.961 7.25114 431.729 7.31888 431.523 7.40274V6.71568C431.703 6.64472 431.939 6.58343 432.229 6.53182C432.526 6.47376 432.819 6.44473 433.11 6.44473C433.852 6.44473 434.397 6.60601 434.745 6.92857C435.1 7.24469 435.277 7.65112 435.277 8.14787C435.277 8.46398 435.193 8.76074 435.026 9.03814C434.864 9.3091 434.603 9.49941 434.242 9.60908C434.655 9.6994 434.951 9.88004 435.132 10.151C435.319 10.4155 435.413 10.7187 435.413 11.0606C435.413 11.667 435.203 12.1219 434.784 12.4251C434.364 12.7218 433.797 12.8702 433.081 12.8702Z" fill="white"/>
</svg>
